<svg width="35" height="19" viewBox="0 0 35 19" fill="none" xmlns="http://www.w3.org/2000/svg">
<path d="M23.7194 13.7371V18.163H15.2717V17.4956H8.58395V18.163H0.101074L0.101074 13.7371L23.7194 13.7371Z" fill="#1FC07C"/>
<path d="M15.272 17.4971H8.58423V18.1996H15.272V17.4971Z" fill="#96E3C1"/>
<path d="M15.272 13.7371H8.58423V17.4956H15.272V13.7371Z" fill="#96E3C1"/>
<path d="M23.7194 17.9531H0.101074L0.101074 18.2688H23.7194V17.9531Z" fill="#00A15D"/>
<path d="M26.4301 9.16968V13.5956L17.9472 13.5956V12.8931H11.2594V13.5956H2.81177L2.81177 9.16968L26.4301 9.16968Z" fill="#1FC07C"/>
<path d="M17.9473 12.8931H11.2595V13.5956H17.9473V12.8931Z" fill="#96E3C1"/>
<path d="M17.9473 9.17041H11.2595V12.929H17.9473V9.17041Z" fill="#96E3C1"/>
<path d="M26.4301 13.3855L2.81177 13.3855V13.7368L26.4301 13.7368V13.3855Z" fill="#00A15D"/>
<path d="M25.7963 4.60596V9.03191L17.3486 9.03191V8.32938H10.6609V9.03191H2.17798L2.17798 4.60596L25.7963 4.60596Z" fill="#1FC07C"/>
<path d="M17.3491 8.32837H10.6614V9.0309H17.3491V8.32837Z" fill="#96E3C1"/>
<path d="M17.3491 4.60571H10.6614V8.36426H17.3491V4.60571Z" fill="#96E3C1"/>
<path d="M25.7963 8.82104L2.17798 8.82104V9.17231L25.7963 9.17231V8.82104Z" fill="#00A15D"/>
<path d="M26.4301 0V4.46108L17.9472 4.46108V3.75855L11.2594 3.75855V4.46108L2.81177 4.46108L2.81177 0L26.4301 0Z" fill="#1FC07C"/>
<path d="M17.9473 3.76099L11.2595 3.76099V4.46352H17.9473V3.76099Z" fill="#96E3C1"/>
<path d="M17.9473 0.000732422L11.2595 0.000732422V3.75928L17.9473 3.75928V0.000732422Z" fill="#96E3C1"/>
<path d="M26.4301 4.25098L2.81177 4.25098V4.60224L26.4301 4.60224V4.25098Z" fill="#00A15D"/>
<path opacity="0.4" d="M22.8396 7.06201L9.85132 7.06201V18.162H22.8396V7.06201Z" fill="#00A15D"/>
<path d="M34.6667 7.48193L11.0132 7.48193V18.5819H34.6667V7.48193Z" fill="#96E3C1"/>
<path d="M33.9269 8.1521L11.6814 8.1521V17.8822H33.9269V8.1521Z" fill="#1FC07C"/>
<path d="M32.0613 10.0488C31.7445 9.73266 31.5685 9.31114 31.5685 8.85449L14.0748 8.85449C14.0748 9.31114 13.8988 9.73266 13.582 10.0488C13.2652 10.3649 12.8428 10.5406 12.3853 10.5406V15.5285C12.8428 15.5285 13.2652 15.7042 13.582 16.0203C13.8988 16.3365 14.0748 16.758 14.0748 17.2146H31.6037C31.6037 16.758 31.7797 16.3365 32.0965 16.0203C32.4133 15.7042 32.8357 15.5285 33.2933 15.5285V10.5406C32.8005 10.5406 32.3781 10.3649 32.0613 10.0488ZM22.8393 16.0554C21.4665 16.0554 20.3753 14.6855 20.3753 12.9994C20.3753 11.3134 21.4665 9.94342 22.8393 9.94342C24.212 9.94342 25.3032 11.3134 25.3032 12.9994C25.3032 14.7206 24.1768 16.0554 22.8393 16.0554Z" fill="#96E3C1"/>
</svg>
