<svg width="36" height="18" viewBox="0 0 36 18" fill="none" xmlns="http://www.w3.org/2000/svg">
<path d="M17.012 10.3338C16.9727 10.5312 16.9334 10.7286 16.8548 10.926C16.8154 11.0839 16.7368 11.2419 16.6975 11.3998C16.6189 11.6367 16.5009 11.8735 16.383 12.1104C16.3437 12.2288 16.265 12.3472 16.2257 12.4656C15.9898 12.8999 15.7539 13.2947 15.4393 13.6895C15.3214 13.8474 15.2035 14.0054 15.0855 14.1238C14.3778 14.9528 13.4735 15.6635 12.4906 16.1767C12.294 16.2557 12.1368 16.374 11.9402 16.453C11.6256 16.5714 11.3111 16.6898 10.9573 16.8082C10.7607 16.8477 10.6034 16.8873 10.4069 16.9268C9.26667 17.1637 8.08711 17.2031 6.90761 16.9268C2.30756 15.9793 -0.680535 11.4393 0.302383 6.82028C1.24598 2.20131 5.76745 -0.798976 10.3675 0.187984C11.9795 0.54329 13.4735 1.33282 14.653 2.51717C16.7368 4.57005 17.6017 7.53086 17.012 10.3338Z" fill="url(#paint0_linear_200_5948)"/>
<path d="M16.2266 4.65065C16.1873 4.57169 16.1087 4.45318 16.0694 4.37422C15.7155 3.74257 15.2437 3.11107 14.6933 2.55837C13.5138 1.37402 12.0198 0.584294 10.4078 0.228988C5.80773 -0.718494 1.28627 2.2425 0.342673 6.86148C-0.286395 9.90132 0.775156 12.9016 2.89826 14.8755C3.99913 15.902 5.37523 16.6522 6.9479 16.968C8.16672 17.2049 9.34618 17.2049 10.447 16.968C10.6436 16.9285 10.801 16.8889 10.9975 16.8494C11.3121 16.7705 11.6659 16.6521 11.9805 16.4942C12.177 16.4152 12.3736 16.3362 12.5309 16.2178C13.5138 15.7045 14.4181 15.0335 15.1258 14.165C15.2437 14.0071 15.3617 13.8491 15.4796 13.7307C15.7548 13.3359 16.03 12.9411 16.2659 12.5068C16.3446 12.3884 16.3839 12.27 16.4232 12.1515C16.5411 11.9147 16.6198 11.6779 16.7377 11.441C16.777 11.3226 16.8164 11.2435 16.8557 11.1251C16.8557 11.0856 16.895 11.0067 16.895 10.9672C16.9344 10.7698 17.013 10.5724 17.0523 10.375C17.4061 8.36162 17.1309 6.34822 16.2266 4.65065ZM14.9292 11.4803C14.8899 11.5593 14.8506 11.6778 14.8112 11.7568C14.6147 12.1121 14.418 12.4279 14.1821 12.7437C14.1035 12.8622 13.9856 12.9806 13.9069 13.099C13.3172 13.7701 12.6095 14.3229 11.8231 14.7572C11.6659 14.8361 11.5087 14.9151 11.3907 14.9546C11.1548 15.073 10.8796 15.1518 10.6044 15.2308C9.58214 15.5466 8.44193 15.5862 7.34107 15.3493C3.60598 14.5598 1.24694 10.9277 1.99396 7.17723C2.78029 3.42678 6.39741 1.05804 10.1325 1.80813C11.4299 2.08447 12.6488 2.71624 13.5924 3.70321C14.1428 4.2559 14.5753 4.88744 14.8899 5.55858C14.9292 5.63753 14.9685 5.75604 15.0078 5.835C15.5583 7.09831 15.7155 8.48013 15.4403 9.86188C15.4403 9.90136 15.4403 9.94076 15.401 9.98024C15.401 10.0197 15.3616 10.0986 15.3616 10.1381C15.2437 10.6119 15.0865 11.0461 14.9292 11.4803Z" fill="url(#paint1_linear_200_5948)"/>
<path d="M10.0146 2.08412C10.5257 2.20255 10.9974 2.36054 11.4299 2.55794C11.5085 2.59741 11.6265 2.63682 11.7051 2.67629C12.059 2.83421 12.3735 3.07108 12.6488 3.26847C12.7667 3.34743 12.8846 3.46594 13.0026 3.5449C13.671 4.09759 14.1821 4.80809 14.5752 5.59766C14.6539 5.75557 14.7325 5.87405 14.7718 6.03196C14.8898 6.26883 14.9684 6.54514 15.047 6.78201C15.3222 7.76897 15.4009 8.87441 15.165 9.9798C14.418 13.5723 10.9188 15.9016 7.30166 15.1515C3.72384 14.4014 1.40421 10.8878 2.15123 7.25583C2.42644 5.99252 3.05545 4.80817 3.95974 3.90016C5.5324 2.28155 7.81283 1.61038 10.0146 2.08412Z" stroke="url(#paint2_linear_200_5948)" stroke-width="2.4849" stroke-miterlimit="10"/>
<path d="M14.9713 13.7688C14.7536 14.0924 14.5359 14.416 14.2596 14.7026C14.1552 14.8178 14.0508 14.9331 13.9157 15.0453C13.2308 15.6998 12.5211 16.2892 11.6168 16.6406C11.4538 16.7188 11.2938 16.7661 11.1308 16.8443C10.8416 16.9418 9.428 17.2767 9.14479 17.3121L5.93528 12.8691L6.15681 11.857L4.43478 11.0691L6.5392 10.0337L4.43477 8.50429L6.99952 5.53454L8.16277 6.46986L9.29432 8.36931L11.8591 5.53453L15.4496 13.0005C15.4098 13.0906 15.0419 13.6816 14.9713 13.7688Z" fill="url(#paint3_linear_200_5948)"/>
<path fill-rule="evenodd" clip-rule="evenodd" d="M10.3531 5.50684H11.8984V7.22176H13.1951V8.56109H11.8984V9.72688H13.1951V11.0662H11.8984V12.8145H10.5574L9.34319 11.0662H7.30917V12.8145H5.75674V11.0662H4.41583V9.72688H5.75674V8.56109H4.41583V7.22176H5.75674V5.50684H7.11915L8.30181 7.22176H10.3531V5.50684ZM10.3531 8.56109H9.22545L10.0294 9.72688H10.3531V8.56109ZM8.41296 9.72688L7.60327 8.56109H7.30917V9.72688H8.41296Z" fill="url(#paint4_linear_200_5948)"/>
<path d="M28.3006 12.1724H25.0304C24.4447 12.1724 23.9567 11.6816 23.9567 11.0927V9.27675C23.9567 8.6878 24.4447 8.19702 25.0304 8.19702H28.3006C28.8863 8.19702 29.3743 8.6878 29.3743 9.27675V11.0927C29.3743 11.6816 28.8863 12.1724 28.3006 12.1724Z" fill="#2D5887"/>
<path d="M32.4005 14.9205V16.6382C32.4005 16.6873 32.4005 16.7364 32.4005 16.7364C32.3517 16.8836 32.2053 17.0308 32.0589 17.0308H17.4653C17.3189 17.0308 17.1725 16.9327 17.1237 16.7364C17.1237 16.6873 17.1237 16.6382 17.1237 16.6382V14.9205C17.1237 14.6751 17.2701 14.5278 17.4653 14.5278H32.0101C32.2053 14.4788 32.4005 14.6751 32.4005 14.9205Z" fill="url(#paint5_linear_200_5948)"/>
<path opacity="0.5" d="M20.5401 14.4785L20.052 17.0306H17.9532L18.4901 14.4785H20.5401Z" fill="white"/>
<path opacity="0.5" d="M28.0077 14.4785L27.4708 17.0306H26.2506L26.7875 14.4785H28.0077Z" fill="white"/>
<path opacity="0.5" d="M21.4186 14.4785L20.8818 17.0306H20.3937L20.8818 14.4785H21.4186Z" fill="white"/>
<path opacity="0.1" d="M32.3517 16.7361H17.1237V17.0306H32.3517V16.7361Z" fill="#4F3500"/>
<path d="M35.0849 12.368V14.0857C35.0849 14.1348 35.0849 14.1839 35.0849 14.1839C35.0361 14.3311 34.8896 14.4783 34.7432 14.4783H20.1985C20.052 14.4783 19.9056 14.3802 19.8568 14.1839C19.8568 14.1348 19.8568 14.0857 19.8568 14.0857V12.368C19.8568 12.1226 20.0032 11.9753 20.1985 11.9753H34.7432C34.9384 11.9753 35.0849 12.1226 35.0849 12.368Z" fill="url(#paint6_linear_200_5948)"/>
<path opacity="0.5" d="M22.7364 11.9753L22.2483 14.4783H20.1496L20.6865 11.9753H22.7364Z" fill="white"/>
<path opacity="0.5" d="M29.6671 11.9753L29.1302 14.4783H27.91L28.4469 11.9753H29.6671Z" fill="white"/>
<path opacity="0.5" d="M23.6148 11.9753L23.078 14.4783H22.5411L23.078 11.9753H23.6148Z" fill="white"/>
<path opacity="0.1" d="M35.0849 14.1846H19.8568V14.479H35.0849V14.1846Z" fill="#4F3500"/>
<path d="M34.6453 9.8167V11.5344C34.6453 11.7798 34.4989 11.9271 34.3037 11.9271H19.759C19.5637 11.9271 19.4173 11.7308 19.4173 11.5344V9.8167C19.4173 9.57131 19.5637 9.42407 19.759 9.42407H34.3037C34.4989 9.42407 34.6453 9.62039 34.6453 9.8167Z" fill="url(#paint7_linear_200_5948)"/>
<path opacity="0.5" d="M23.371 9.42407L22.8341 11.9762H20.7842L21.2723 9.42407H23.371Z" fill="white"/>
<path opacity="0.5" d="M30.2528 9.42407L29.7647 11.9762H28.5445L29.0814 9.42407H30.2528Z" fill="white"/>
<path opacity="0.5" d="M24.2006 9.42407L23.7125 11.9762H23.1756L23.7125 9.42407H24.2006Z" fill="white"/>
<path opacity="0.1" d="M34.6453 11.6816H19.4173V11.9761H34.6453V11.6816Z" fill="#4F3500"/>
<path d="M35.0849 7.26396V8.98171C35.0849 9.2271 34.9384 9.37434 34.7432 9.37434H20.1985C20.0032 9.37434 19.8568 9.17802 19.8568 8.98171V7.26396C19.8568 7.01857 20.0032 6.87134 20.1985 6.87134H34.7432C34.9384 6.87134 35.0849 7.06765 35.0849 7.26396Z" fill="url(#paint8_linear_200_5948)"/>
<path opacity="0.5" d="M23.8103 6.87134L23.2734 9.42342H21.2234L21.7115 6.87134H23.8103Z" fill="white"/>
<path opacity="0.5" d="M30.692 6.87134L30.204 9.42342H28.9838L29.5207 6.87134H30.692Z" fill="white"/>
<path opacity="0.5" d="M24.6398 6.87134L24.1518 9.42342H23.6149L24.1518 6.87134H24.6398Z" fill="white"/>
<path opacity="0.1" d="M35.0849 9.12915H19.8568V9.42362H35.0849V9.12915Z" fill="#4F3500"/>
<path d="M32.6933 4.76104V6.47879C32.6933 6.72418 32.5468 6.87142 32.3516 6.87142H17.8069C17.6116 6.87142 17.4652 6.6751 17.4652 6.47879V4.76104C17.4652 4.51565 17.6116 4.36841 17.8069 4.36841H32.3516C32.5468 4.31933 32.6933 4.51565 32.6933 4.76104Z" fill="url(#paint9_linear_200_5948)"/>
<path opacity="0.5" d="M24.5911 4.31958L24.0542 6.87166H22.0043L22.4924 4.31958H24.5911Z" fill="white"/>
<path opacity="0.5" d="M31.4729 4.31958L30.9848 6.87166H29.7646L30.3015 4.31958H31.4729Z" fill="white"/>
<path opacity="0.5" d="M25.4209 4.31958L24.9328 6.87166H24.3959L24.9328 4.31958H25.4209Z" fill="white"/>
<path opacity="0.1" d="M32.6933 6.57666H17.4652V6.87113H32.6933V6.57666Z" fill="#4F3500"/>
<defs>
<linearGradient id="paint0_linear_200_5948" x1="0.133401" y1="8.59746" x2="17.1832" y2="8.59746" gradientUnits="userSpaceOnUse">
<stop offset="0.00289017" stop-color="#FFD44F"/>
<stop offset="1" stop-color="#FFA607"/>
</linearGradient>
<linearGradient id="paint1_linear_200_5948" x1="9.88542" y1="-1.42888" x2="7.53818" y2="17.6105" gradientUnits="userSpaceOnUse">
<stop offset="0.00289017" stop-color="#FFD44F"/>
<stop offset="1" stop-color="#FFA607"/>
</linearGradient>
<linearGradient id="paint2_linear_200_5948" x1="8.65921" y1="15.6662" x2="8.65921" y2="1.53138" gradientUnits="userSpaceOnUse">
<stop offset="0.00289017" stop-color="#FFD44F"/>
<stop offset="1" stop-color="#FF9807"/>
</linearGradient>
<linearGradient id="paint3_linear_200_5948" x1="8.94658" y1="10.0794" x2="11.8185" y2="13.5372" gradientUnits="userSpaceOnUse">
<stop stop-color="#FAA404"/>
<stop offset="1" stop-color="#FF7904" stop-opacity="0"/>
</linearGradient>
<linearGradient id="paint4_linear_200_5948" x1="12.7346" y1="12.7778" x2="9.15839" y2="5.15429" gradientUnits="userSpaceOnUse">
<stop stop-color="#FFE491"/>
<stop offset="1" stop-color="white"/>
</linearGradient>
<linearGradient id="paint5_linear_200_5948" x1="17.1369" y1="15.7638" x2="32.383" y2="15.7638" gradientUnits="userSpaceOnUse">
<stop offset="0.00289017" stop-color="#FFD44F"/>
<stop offset="1" stop-color="#FFA607"/>
</linearGradient>
<linearGradient id="paint6_linear_200_5948" x1="19.8505" y1="13.2226" x2="35.0966" y2="13.2226" gradientUnits="userSpaceOnUse">
<stop offset="0.00289017" stop-color="#FFD44F"/>
<stop offset="1" stop-color="#FFA607"/>
</linearGradient>
<linearGradient id="paint7_linear_200_5948" x1="19.4055" y1="10.6838" x2="34.6525" y2="10.6838" gradientUnits="userSpaceOnUse">
<stop offset="0.00289017" stop-color="#FFD44F"/>
<stop offset="1" stop-color="#FFA607"/>
</linearGradient>
<linearGradient id="paint8_linear_200_5948" x1="19.8486" y1="8.14218" x2="35.0957" y2="8.14218" gradientUnits="userSpaceOnUse">
<stop offset="0.00289017" stop-color="#FFD44F"/>
<stop offset="1" stop-color="#FFA607"/>
</linearGradient>
<linearGradient id="paint9_linear_200_5948" x1="17.4463" y1="5.60126" x2="32.6934" y2="5.60126" gradientUnits="userSpaceOnUse">
<stop offset="0.00289017" stop-color="#FFD44F"/>
<stop offset="1" stop-color="#FFA607"/>
</linearGradient>
</defs>
</svg>
