<svg width="86" height="85" viewBox="0 0 86 85" fill="none" xmlns="http://www.w3.org/2000/svg">
<g clip-path="url(#clip0_253_5514)">
<mask id="mask0_253_5514" style="mask-type:luminance" maskUnits="userSpaceOnUse" x="0" y="0" width="86" height="86">
<path d="M85.2997 47.7C84.7997 51.5 83.8997 55.0999 82.4997 58.5C79.3997 66.2 74.1997 72.6 67.5997 77.3C59.2997 83.2 48.7997 86.1 37.8997 84.7C36.1997 84.5 34.5997 84.2 32.8997 83.8C24.4997 81.7 17.2997 77.2999 11.6997 71.2C6.69973 65.7 3.09973 58.9 1.49973 51.4C0.899731 48.6 0.599731 45.7 0.599731 42.7C0.599731 40.9 0.699731 39.0999 0.899731 37.2999C1.09973 35.2999 1.49973 33.4 1.99973 31.6C2.59973 29.2 3.49973 26.9 4.49973 24.7999C8.49973 16.1999 15.1997 9.29995 23.3997 4.99995C29.0997 1.99995 35.4997 0.299951 42.1997 0.199951C43.4997 0.199951 44.7997 0.199951 46.1997 0.299951C46.7997 0.299951 47.3997 0.399951 47.9997 0.499951C48.0997 0.499951 48.1997 0.499951 48.2997 0.499951C56.3997 1.49995 63.5997 4.69995 69.4997 9.39995C75.9997 14.5 80.7997 21.5 83.3997 29.4C85.3997 35 86.0997 41.2999 85.2997 47.7Z" fill="white"/>
</mask>
<g mask="url(#mask0_253_5514)">
<path d="M85.2997 47.7C84.7997 51.5 83.8997 55.0999 82.4997 58.5C79.3997 66.2 74.1997 72.6 67.5997 77.3C59.2997 83.2 48.7997 86.1 37.8997 84.7C36.1997 84.5 34.5997 84.2 32.8997 83.8C24.4997 81.7 17.2997 77.2999 11.6997 71.2C6.69973 65.7 3.09973 58.9 1.49973 51.4C0.899731 48.6 0.599731 45.7 0.599731 42.7C0.599731 40.9 0.699731 39.0999 0.899731 37.2999C1.09973 35.2999 1.49973 33.4 1.99973 31.6C2.59973 29.2 3.49973 26.9 4.49973 24.7999C8.49973 16.1999 15.1997 9.29995 23.3997 4.99995C29.0997 1.99995 35.4997 0.299951 42.1997 0.199951C43.4997 0.199951 44.7997 0.199951 46.1997 0.299951C46.7997 0.299951 47.3997 0.399951 47.9997 0.499951C48.0997 0.499951 48.1997 0.499951 48.2997 0.499951C56.3997 1.49995 63.5997 4.69995 69.4997 9.39995C75.9997 14.5 80.7997 21.5 83.3997 29.4C85.3997 35 86.0997 41.2999 85.2997 47.7Z" fill="#CDDDFC"/>
</g>
<mask id="mask1_253_5514" style="mask-type:luminance" maskUnits="userSpaceOnUse" x="0" y="0" width="86" height="86">
<path d="M85.2997 47.7C84.7997 51.5 83.8997 55.0999 82.4997 58.5C79.3997 66.2 74.1997 72.6 67.5997 77.3C59.2997 83.2 48.7997 86.1 37.8997 84.7C36.1997 84.5 34.5997 84.2 32.8997 83.8C24.4997 81.7 17.2997 77.2999 11.6997 71.2C6.69973 65.7 3.09973 58.9 1.49973 51.4C0.899731 48.6 0.599731 45.7 0.599731 42.7C0.599731 40.9 0.699731 39.0999 0.899731 37.2999C1.09973 35.2999 1.49973 33.4 1.99973 31.6C2.59973 29.2 3.49973 26.9 4.49973 24.7999C8.49973 16.1999 15.1997 9.29995 23.3997 4.99995C29.0997 1.99995 35.4997 0.299951 42.1997 0.199951C43.4997 0.199951 44.7997 0.199951 46.1997 0.299951C46.7997 0.299951 47.3997 0.399951 47.9997 0.499951C48.0997 0.499951 48.1997 0.499951 48.2997 0.499951C56.3997 1.49995 63.5997 4.69995 69.4997 9.39995C75.9997 14.5 80.7997 21.5 83.3997 29.4C85.3997 35 86.0997 41.2999 85.2997 47.7Z" fill="white"/>
</mask>
<g mask="url(#mask1_253_5514)">
<path d="M66.1997 36.5C65.7997 39.5 65.0997 42.4 63.9997 45C61.4997 51.0999 57.3997 56.2 52.1997 59.9C45.5997 64.6 37.2997 66.9 28.5997 65.8C27.2997 65.6 25.8997 65.4 24.6997 65.1C18.0997 63.5 12.2997 59.8999 7.89973 55.0999C4.59973 51.5999 2.09973 47.2999 0.599731 42.7C0.599731 40.9 0.699731 39.0999 0.899731 37.2999C1.09973 35.2999 1.49973 33.4 1.99973 31.6C2.59973 29.2 3.49973 26.9 4.49973 24.7999C8.49973 16.1999 15.1997 9.29995 23.3997 4.99995C29.0997 1.99995 35.4997 0.299951 42.1997 0.199951C46.4997 1.39995 50.2997 3.49995 53.6997 6.09995C58.7997 10.2 62.6997 15.7 64.7997 22C66.2997 26.4 66.7997 31.4 66.1997 36.5Z" fill="#F2F7FE"/>
</g>
<mask id="mask2_253_5514" style="mask-type:luminance" maskUnits="userSpaceOnUse" x="0" y="0" width="86" height="86">
<path d="M85.2997 47.7C84.7997 51.5 83.8997 55.0999 82.4997 58.5C79.3997 66.2 74.1997 72.6 67.5997 77.3C59.2997 83.2 48.7997 86.1 37.8997 84.7C36.1997 84.5 34.5997 84.2 32.8997 83.8C24.4997 81.7 17.2997 77.2999 11.6997 71.2C6.69973 65.7 3.09973 58.9 1.49973 51.4C0.899731 48.6 0.599731 45.7 0.599731 42.7C0.599731 40.9 0.699731 39.0999 0.899731 37.2999C1.09973 35.2999 1.49973 33.4 1.99973 31.6C2.59973 29.2 3.49973 26.9 4.49973 24.7999C8.49973 16.1999 15.1997 9.29995 23.3997 4.99995C29.0997 1.99995 35.4997 0.299951 42.1997 0.199951C43.4997 0.199951 44.7997 0.199951 46.1997 0.299951C46.7997 0.299951 47.3997 0.399951 47.9997 0.499951C48.0997 0.499951 48.1997 0.499951 48.2997 0.499951C56.3997 1.49995 63.5997 4.69995 69.4997 9.39995C75.9997 14.5 80.7997 21.5 83.3997 29.4C85.3997 35 86.0997 41.2999 85.2997 47.7Z" fill="white"/>
</mask>
<g mask="url(#mask2_253_5514)">
<path d="M34.7997 22.0999C30.1997 26.1999 26.0997 30.6999 22.5997 35.8999C24.3997 41.3999 27.4997 46.6999 31.8997 51.7999C38.1997 51.0999 44.1997 49.7999 49.8997 47.8999C51.5997 41.2999 52.0997 35.1999 51.6997 29.5999C45.8997 26.1999 40.2997 23.6999 34.7997 22.0999Z" fill="#0361F0"/>
<path d="M32.4997 11.5999C26.4997 10.2999 20.7997 8.69985 16.0997 6.19985C16.4997 0.799852 17.2997 -4.30015 18.5997 -9.00015C23.6997 -10.9001 29.8997 -12.1001 36.5997 -12.9001C39.8997 -8.80015 42.6997 -4.60015 45.1997 -0.200147C41.8997 3.99985 37.4997 7.89985 32.4997 11.5999Z" fill="#0361F0"/>
<path d="M31.4672 4.82847L30.4905 5.04297L38.3627 40.8879L39.3394 40.6734L31.4672 4.82847Z" fill="#0361F0"/>
<path d="M10.0997 34.5998C7.09972 39.5998 3.89972 44.2998 0.299719 48.5998C-4.40028 46.8998 -8.80028 44.6998 -12.6003 41.5998C-12.3003 34.5998 -11.6003 28.6998 -10.8003 23.2998C-5.90028 21.3998 -1.20028 19.8998 3.19972 18.9998C5.69972 22.9998 7.99972 27.9998 10.0997 34.5998Z" fill="#0361F0"/>
<path d="M3.49973 34.4998L3.59973 33.4998L10.0997 34.0998C13.3997 34.2998 17.5997 34.6998 22.5997 35.2998L38.1997 36.7998L38.0997 37.7998L22.4997 36.2998C17.4997 35.5998 13.2997 35.1998 9.99972 35.0998L3.49973 34.4998Z" fill="#0361F0"/>
<path d="M38.3997 37.7999L37.8997 36.9L51.3997 29C55.1997 26.6 59.3997 24.2 63.8997 21.7L69.8997 18.2L70.3997 19.1L64.3997 22.6C59.9997 25.1 55.7997 27.5 51.9997 29.9L38.3997 37.7999Z" fill="#0361F0"/>
<path d="M64.0997 22.0999C68.9997 25.8999 74.0997 28.6999 79.2997 30.3999C83.0997 26.9999 86.2997 22.8999 88.8997 18.1999C86.0997 12.3999 83.0997 7.0999 79.5997 2.3999C73.8997 2.7999 68.4997 3.3999 64.2997 4.7999C63.4997 9.2999 63.5997 15.1999 64.0997 22.0999Z" fill="#0361F0"/>
<path d="M25.4997 66.3999C28.7997 70.3999 32.2997 75.4999 35.5997 81.1999C32.3997 85.7999 28.3997 89.4999 24.0997 92.5999C17.7997 90.7999 12.1997 88.3999 7.19971 85.1999C6.69971 79.7999 6.99971 74.3999 8.09971 68.9999C14.5997 67.4999 20.6997 66.3999 25.4997 66.3999Z" fill="#0361F0"/>
<path d="M22.9997 73.3L22.0997 72.9L24.9997 66.1999C26.8997 61.1999 28.8997 56.5 31.3997 51.5L37.6997 37.2L38.5997 37.5999L32.2997 51.9C29.7997 56.9 27.7997 61.5999 25.8997 66.5999L22.9997 73.3Z" fill="#0361F0"/>
<path d="M61.3997 57.9998C59.9997 62.7998 58.3997 68.3998 57.7997 75.6998C62.0997 77.8998 67.7997 79.1998 73.2997 80.8998L85.5997 67.1998C82.8997 61.4998 79.5997 55.2998 77.5997 52.2998C71.4997 53.6998 66.4997 55.6998 61.3997 57.9998Z" fill="#0361F0"/>
<path d="M66.4997 63.1998L61.0997 58.3998C57.8997 55.2998 53.1997 51.0998 49.4997 48.0998L37.7997 37.6998L38.4997 36.9998L50.1997 47.3998C53.7997 50.2998 58.5997 54.5998 61.7997 57.6998L67.1997 62.4998L66.4997 63.1998Z" fill="#0361F0"/>
<path d="M31.5997 81.4C7.69972 78.4 -9.30028 56.6 -6.30028 32.8C-3.30028 8.99996 18.3997 -8.10004 42.2997 -5.10004C66.1997 -2.10004 83.0997 19.6 80.1997 43.5C77.1997 67.3 55.3997 84.3 31.5997 81.4ZM42.0997 -4.10004C18.8997 -7.00004 -2.40028 9.59996 -5.30028 32.9C-8.20028 56.2 8.39972 77.5 31.6997 80.4C54.9997 83.3 76.2997 66.7 79.1997 43.4C81.9997 20.1 65.3997 -1.20004 42.0997 -4.10004Z" fill="#0361F0"/>
</g>
<mask id="mask3_253_5514" style="mask-type:luminance" maskUnits="userSpaceOnUse" x="27" y="26" width="23" height="24">
<path d="M46.1767 26.8379L27.0274 30.5195L30.7091 49.6688L49.8584 45.9872L46.1767 26.8379Z" fill="white"/>
</mask>
<g mask="url(#mask3_253_5514)">
<path d="M46.1764 26.8379L27.0274 30.5195L30.709 49.6685L49.858 45.9869L46.1764 26.8379Z" fill="#0361F0"/>
<path d="M42.7997 37.9999L41.5997 33.8999L39.5997 34.2999C39.5997 34.2999 38.5997 37.7999 38.5997 38.2999L36.1997 34.9999L34.0997 35.3999L34.4997 39.0999L34.8997 42.7999L36.1997 42.5999C36.7997 42.4999 36.8997 42.1999 36.8997 41.5999C36.8997 41.5999 36.4997 38.1999 36.2997 37.6999L36.3997 37.8999C36.4997 38.1999 38.2997 40.7999 38.2997 40.7999L39.8997 40.4999C39.8997 40.4999 40.4997 37.3999 40.5997 36.7999L41.4997 40.5999C41.6997 41.1999 41.8997 41.3999 42.4997 41.2999L43.7997 41.0999L42.7997 37.9999Z" fill="white"/>
</g>
</g>
<defs>
<clipPath id="clip0_253_5514">
<rect width="85" height="85" fill="white" transform="translate(0.599731)"/>
</clipPath>
</defs>
</svg>
