<svg width="44" height="43" viewBox="0 0 44 43" fill="none" xmlns="http://www.w3.org/2000/svg">
<path d="M21.6888 43H21.5332C11.516 42.9744 4.80296 40.9067 3.40878 39.6089C1.93559 38.2995 0 31.5174 0 21.5C0 11.4826 1.93559 4.70051 3.40878 3.39106C4.80296 2.1072 11.5415 0.0255842 21.5332 0H21.6888C31.706 0.0255842 38.419 2.1072 39.8132 3.39106C41.2864 4.70051 43.2197 11.5082 43.2197 21.5C43.2197 31.4918 41.2841 38.2995 39.8109 39.6089C38.419 40.9207 31.706 43 21.6888 43Z" fill="#0357EE"/>
<path d="M31.5783 22.7932L30.7511 12.7503H25.7692C25.7692 12.7503 21.9724 20.4674 21.6378 21.5256H21.5843L17.583 12.741H12.5733L11.7484 21.4489L11.0513 30.2871H14.0976C15.4151 30.2871 15.9309 29.7219 16.0332 28.3357C16.0332 28.3357 16.5513 20.2441 16.4723 19.0626H16.5258L16.6791 19.6022C16.8859 20.3209 19.7254 27.2309 19.7254 27.2309H23.4688C23.4688 27.2309 26.3106 20.4209 26.6731 19.0719H26.7219L27.1611 28.345C27.2633 29.7405 27.8047 30.2964 29.0966 30.2964H32.1429L31.5783 22.7932Z" fill="white"/>
</svg>
