<svg width="218" height="153" viewBox="0 0 218 153" fill="none" xmlns="http://www.w3.org/2000/svg">
<circle cx="109" cy="68" r="64" fill="#0D1A32" stroke="#333E52" stroke-width="8"/>
<mask id="mask0_0_1" style="mask-type:alpha" maskUnits="userSpaceOnUse" x="34" y="34" width="154" height="77">
<path d="M34 34H188V110L68 111L37 75.5L34 34Z" fill="#D9D9D9"/>
</mask>
<g mask="url(#mask0_0_1)">
<path d="M183.793 86.4511C159.271 98.3331 139.694 118.201 115.19 130.071C109.794 121.313 104.395 112.549 98.9924 103.779C120.627 87.2515 137.335 62.7266 158.977 46.1689C167.245 59.5901 175.517 73.0175 183.793 86.4511Z" fill="#CBD882"/>
<path d="M148.386 83.6144C152.387 90.1085 151.297 98.5611 145.988 102.574C140.679 106.587 133.535 105.254 130.072 99.6322C126.631 94.0473 127.739 85.5832 132.488 80.661C137.249 75.7574 144.385 77.1202 148.386 83.6144Z" fill="#6D8F25"/>
<path fill-rule="evenodd" clip-rule="evenodd" d="M158.7 49.9997C165.887 61.6644 173.076 73.3353 180.27 85.0123C157.52 96.9034 138.93 115.548 116.191 127.458C111.382 119.653 106.574 111.847 101.765 104.042C122.127 88.273 138.339 65.7687 158.7 49.9997ZM159.261 55.7716C156.039 58.2688 152.926 60.9031 149.852 63.6415C149.028 64.38 147.828 64.0951 147.154 63.0003C136.347 73.0881 126.287 84.4304 115.461 94.5296C115.998 95.4017 115.782 96.7124 114.957 97.451C111.902 100.178 108.782 102.842 105.548 105.321C109.259 111.345 112.966 117.363 116.67 123.375C120.178 121.341 123.595 119.159 126.936 116.896C127.83 116.269 128.984 116.48 129.521 117.352C141.535 109.182 152.795 99.7883 164.78 91.6116C164.117 90.5355 164.276 89.1319 165.181 88.5233C168.529 86.2302 171.928 84.0598 175.436 82.0265C170.048 73.2811 164.657 64.5294 159.261 55.7716Z" fill="#6D8F25"/>
<path d="M118.982 103.444C119.147 102.881 119.72 102.606 120.138 102.911C120.409 103.102 120.805 103.038 121.063 102.751C121.436 102.316 122.049 102.399 122.25 102.89C122.388 103.24 122.727 103.415 123.088 103.295C123.59 103.113 124.047 103.523 123.972 104.107C123.939 104.511 124.157 104.863 124.486 104.942C124.996 105.063 125.191 105.711 124.871 106.189C124.647 106.532 124.674 106.95 124.924 107.232C125.262 107.613 125.116 108.291 124.641 108.558C124.314 108.734 124.124 109.132 124.196 109.498C124.303 110.046 123.879 110.563 123.348 110.532C123.004 110.513 122.656 110.779 122.522 111.143C122.364 111.676 121.75 111.926 121.362 111.628C121.079 111.418 120.653 111.475 120.384 111.744C119.988 112.141 119.374 112.059 119.204 111.575C119.077 111.244 118.72 111.08 118.347 111.181C117.852 111.333 117.406 110.942 117.486 110.406C117.53 110.021 117.324 109.687 116.995 109.608C116.515 109.494 116.343 108.883 116.656 108.435C116.88 108.092 116.882 107.681 116.644 107.418C116.299 107.067 116.445 106.389 116.92 106.122C117.247 105.946 117.455 105.536 117.384 105.171C117.258 104.634 117.689 104.087 118.19 104.111C118.541 104.1 118.889 103.834 118.982 103.444Z" fill="#6D8F25"/>
<path d="M155.307 71.0829C155.408 70.4575 156.022 70.2074 156.509 70.624C156.849 70.9265 157.267 70.8992 157.525 70.6121C157.886 70.1593 158.58 70.3717 158.842 71.0041C159.026 71.428 159.44 71.6848 159.824 71.6018C160.361 71.4759 160.921 72.0525 160.891 72.7106C160.893 73.1704 161.167 73.6157 161.554 73.7868C162.121 74.0007 162.396 74.7787 162.099 75.2942C161.887 75.6555 161.941 76.1595 162.237 76.5148C162.684 77.0329 162.596 77.8039 162.086 78.0154C161.748 78.1726 161.592 78.6267 161.71 79.0664C161.886 79.7259 161.466 80.2915 160.908 80.1747C160.5 80.0935 160.17 80.3478 160.082 80.7862C159.969 81.393 159.332 81.606 158.857 81.2079C158.528 80.924 158.099 80.9328 157.84 81.2199C157.468 81.6541 156.797 81.4788 156.547 80.865C156.362 80.441 155.959 80.2028 155.575 80.2858C155.069 80.4188 154.532 79.8794 154.543 79.2327C154.552 78.7915 154.278 78.3462 153.914 78.2122C153.377 78.0054 153.114 77.246 153.392 76.7419C153.593 76.362 153.527 75.8395 153.243 75.5027C152.819 75.0217 152.896 74.2322 153.382 73.9835C153.709 73.8078 153.865 73.3537 153.736 72.8954C153.571 72.2545 153.968 71.6518 154.503 71.7315C154.9 71.7941 155.219 71.5213 155.307 71.0829Z" fill="#6D8F25"/>
<path fill-rule="evenodd" clip-rule="evenodd" d="M141.683 99.3876L139.367 101.282L137.132 98.5483L135.188 100.138L133.443 98.0046L135.387 96.4148L133.869 94.5577L131.924 96.1476L130.18 94.0141L132.124 92.4242L129.848 89.6408L131.858 87.9973L135.953 89.2932L139.003 86.7994L136.727 84.016L139.053 82.1132L141.33 84.8966L143.339 83.2535L145.084 85.387L143.074 87.0301L144.593 88.8872L146.602 87.2441L148.347 89.3776L146.337 91.0207L148.572 93.7539L146.53 95.4238L142.522 94.1409L139.448 96.6543L141.683 99.3876ZM137.703 94.5208L139.393 93.1395L136.669 92.2678L136.185 92.6637L137.703 94.5208ZM139.092 90.2866L141.824 91.1512L142.266 90.7899L140.747 88.9329L139.092 90.2866Z" fill="#CBD882"/>
<path fill-rule="evenodd" clip-rule="evenodd" d="M160.36 73.8831C161.56 75.8313 161.297 78.2714 159.83 79.38C158.333 80.4815 156.207 79.8972 155.063 78.0417C153.92 76.1862 154.149 73.6905 155.589 72.4963C157.022 71.332 159.171 71.9534 160.36 73.8831ZM159.737 74.3688C158.834 72.903 157.188 72.4326 156.092 73.3126C154.977 74.2041 154.794 76.1087 155.674 77.5375C156.554 78.9662 158.189 79.418 159.327 78.5636C160.446 77.7207 160.64 75.8346 159.737 74.3688Z" fill="#CBD882"/>
<path fill-rule="evenodd" clip-rule="evenodd" d="M123.394 105.205C124.331 106.727 123.916 108.877 122.418 109.978C120.933 111.099 118.99 110.811 118.098 109.364C117.206 107.917 117.675 105.81 119.126 104.635C120.566 103.44 122.468 103.702 123.394 105.205ZM122.783 105.709C122.075 104.559 120.618 104.356 119.515 105.266C118.4 106.157 118.046 107.783 118.72 108.878C119.406 109.991 120.892 110.202 122.03 109.348C123.167 108.493 123.492 106.86 122.783 105.709Z" fill="#CBD882"/>
<path opacity="0.5" d="M122.553 95.9453C118.807 99.3794 114.981 102.684 111.029 105.784C110.747 105.326 110.469 104.874 110.195 104.429C114.124 101.292 117.915 97.9321 121.65 94.4795C121.955 94.9743 122.256 95.4629 122.553 95.9453Z" fill="#6D8F25"/>
<path opacity="0.5" d="M169.977 81.6009C165.763 84.2742 161.685 87.1702 157.676 90.1775C157.318 89.5961 156.96 89.0147 156.602 88.4333C160.588 85.389 164.643 82.4559 168.823 79.7269C169.204 80.3454 169.589 80.9701 169.977 81.6009Z" fill="#6D8F25"/>
<g style="mix-blend-mode:multiply">
<path d="M114.916 129.626C133.053 111.95 145.962 89.4849 164.908 72.5402C159.001 67.1349 153.084 61.7272 147.158 56.3172C130.844 71.7173 116.541 90.383 98.9927 103.779L114.916 129.626Z" fill="#A4AA68"/>
</g>
<path d="M164.499 65.7273C145.538 85.2662 133.935 110.639 114.974 130.178C106.893 123.792 98.8183 117.402 90.7496 111.007C105.417 88.0727 112.757 59.3107 127.413 36.3574C139.775 46.1474 152.137 55.9373 164.499 65.7273Z" fill="#CBD882"/>
<path d="M130.278 75.1627C136.235 79.8884 138.108 88.2053 134.496 93.8094C130.873 99.3949 123.706 100.559 118.53 96.4784C113.384 92.4048 111.53 84.0764 114.312 77.8317C117.124 71.5941 124.291 70.4299 130.278 75.1627Z" fill="#6D8F25"/>
<path fill-rule="evenodd" clip-rule="evenodd" d="M128.484 40.0491C139.218 48.5549 149.959 57.0569 160.707 65.5551C143.399 84.5364 132.309 108.416 115.009 127.367C107.818 121.678 100.631 115.995 93.4475 110.318C107.197 88.5117 114.723 61.8369 128.484 40.0491ZM130.963 45.279C128.783 48.7208 126.751 52.2768 124.812 55.9027C124.3 56.8581 123.079 56.9958 122.061 56.2153C115.364 69.4021 109.766 83.4991 103.058 96.6673C103.869 97.3194 104.113 98.6285 103.582 99.5953C101.643 103.221 99.6292 106.766 97.4494 110.208C102.985 114.596 108.527 118.98 114.076 123.36C116.678 120.272 119.122 117.052 121.502 113.768C122.127 112.871 123.265 112.682 124.095 113.323C132.58 101.543 139.936 88.8455 148.421 77.0656C147.421 76.2737 147.095 74.9133 147.731 74.0349C150.081 70.7443 152.555 67.5308 155.147 64.4242C147.085 58.0425 139.024 51.6607 130.963 45.279Z" fill="#6D8F25"/>
<path d="M109.43 103.851C109.378 103.269 109.836 102.807 110.309 102.951C110.65 103.048 110.995 102.861 111.148 102.485C111.355 101.949 111.94 101.818 112.3 102.237C112.55 102.518 112.943 102.532 113.217 102.312C113.628 101.982 114.206 102.214 114.343 102.769C114.456 103.161 114.762 103.407 115.12 103.366C115.624 103.311 116.016 103.864 115.899 104.422C115.806 104.812 115.979 105.217 116.288 105.386C116.739 105.619 116.859 106.313 116.494 106.717C116.236 107.005 116.196 107.439 116.39 107.754C116.676 108.218 116.441 108.875 115.945 109.026C115.603 109.135 115.379 109.478 115.395 109.878C115.405 110.434 114.935 110.877 114.444 110.745C114.121 110.636 113.746 110.816 113.582 111.173C113.352 111.673 112.737 111.796 112.4 111.415C112.161 111.153 111.776 111.109 111.483 111.34C111.061 111.651 110.494 111.438 110.398 110.908C110.315 110.524 110.009 110.277 109.663 110.337C109.159 110.392 108.79 109.876 108.937 109.325C109.041 108.954 108.898 108.556 108.589 108.387C108.138 108.154 108.059 107.485 108.395 107.074C108.653 106.787 108.693 106.353 108.487 106.019C108.231 105.562 108.418 104.91 108.902 104.74C109.244 104.631 109.445 104.251 109.43 103.851Z" fill="#6D8F25"/>
<path d="M132.498 61.023C132.363 60.3891 132.863 59.9534 133.459 60.1744C133.865 60.3341 134.263 60.1912 134.416 59.8156C134.593 59.2716 135.314 59.2369 135.786 59.7136C136.112 60.076 136.58 60.1715 136.914 59.9657C137.367 59.6614 138.092 60.008 138.294 60.6261C138.441 61.0729 138.871 61.3968 139.294 61.418C139.892 61.4334 140.419 62.0813 140.314 62.6581C140.232 63.0665 140.458 63.5161 140.861 63.7544C141.448 64.0839 141.633 64.8405 141.244 65.2076C140.956 65.4876 140.958 65.9473 141.228 66.3441C141.619 66.8964 141.414 67.5604 140.854 67.6492C140.459 67.7136 140.216 68.0678 140.304 68.5004C140.397 69.1085 139.867 69.5371 139.289 69.3046C138.883 69.1449 138.478 69.3179 138.344 69.682C138.126 70.2004 137.446 70.2607 136.973 69.7841C136.671 69.4587 136.202 69.3632 135.898 69.5761C135.446 69.8804 134.762 69.5596 134.56 68.9415C134.406 68.5247 134.006 68.2079 133.613 68.1938C133.045 68.1855 132.541 67.5747 132.616 66.9907C132.686 66.5638 132.449 66.0956 132.057 65.876C131.512 65.5721 131.297 64.8084 131.663 64.4042C131.921 64.1171 131.908 63.6388 131.649 63.2606C131.258 62.7082 131.422 62.0186 131.97 61.9112C132.354 61.8282 132.566 61.4669 132.498 61.023Z" fill="#6D8F25"/>
<path fill-rule="evenodd" clip-rule="evenodd" d="M129.362 92.1987L127.836 94.7721L124.799 92.971L123.518 95.1311L121.147 93.7252L122.428 91.565L120.365 90.3413L119.084 92.5014L116.713 91.0955L117.995 88.9354L114.902 87.1012L116.227 84.8682L120.518 84.6813L122.527 81.2929L119.435 79.4587L120.968 76.8734L124.061 78.7076L125.385 76.4751L127.755 77.881L126.431 80.1135L128.494 81.3372L129.819 79.1047L132.189 80.5106L130.865 82.7431L133.902 84.5443L132.556 86.8131L128.35 86.9826L126.325 90.3976L129.362 92.1987ZM123.955 88.9917L125.068 87.1148L122.21 87.23L121.891 87.7679L123.955 88.9917ZM123.807 84.538L126.67 84.4134L126.961 83.9225L124.898 82.6988L123.807 84.538Z" fill="#CBD882"/>
<path fill-rule="evenodd" clip-rule="evenodd" d="M138.204 61.9354C139.981 63.3237 140.585 65.7162 139.568 67.2644C138.532 68.8239 136.366 69.0063 134.631 67.6437C132.926 66.2882 132.28 63.87 133.233 62.259C134.186 60.6481 136.435 60.5171 138.204 61.9354ZM137.764 62.5909C136.417 61.5265 134.714 61.6287 133.98 62.8483C133.247 64.0679 133.725 65.9237 135.049 66.951C136.366 68.0083 138.046 67.869 138.821 66.6751C139.577 65.4926 139.122 63.6739 137.764 62.5909Z" fill="#CBD882"/>
<path fill-rule="evenodd" clip-rule="evenodd" d="M114.178 103.997C115.577 105.106 115.887 107.27 114.881 108.837C113.864 110.385 111.951 110.77 110.615 109.724C109.269 108.66 109.001 106.521 109.954 104.91C110.899 103.329 112.778 102.889 114.178 103.997ZM113.778 104.679C112.696 103.835 111.257 104.159 110.523 105.378C109.802 106.616 110.034 108.24 111.045 109.05C112.056 109.861 113.536 109.563 114.311 108.369C115.067 107.186 114.831 105.515 113.778 104.679Z" fill="#CBD882"/>
<path opacity="0.5" d="M110.222 95.5815C107.853 100.087 105.396 104.493 102.751 108.759C102.331 108.437 101.918 108.112 101.51 107.783C104.114 103.491 106.536 99.0298 108.864 94.4986C109.314 94.8696 109.767 95.2305 110.222 95.5815Z" fill="#6D8F25"/>
<path opacity="0.5" d="M149.875 65.8801C146.841 69.8478 143.996 73.9553 141.257 78.1513C140.712 77.7365 140.169 77.3118 139.628 76.8771C142.344 72.644 145.147 68.5109 148.139 64.5175C148.708 64.9693 149.286 65.4236 149.875 65.8801Z" fill="#6D8F25"/>
<g style="mix-blend-mode:multiply">
<path d="M116.23 129.225C127.265 106.378 131.123 76.0759 143.153 53.6392C138.083 49.3143 129.18 48.7833 122.315 45.9483C112.089 66.1212 110.573 109.239 98.5704 128.023C106.052 133.935 110.534 131.737 116.23 129.225Z" fill="#A4AA68"/>
</g>
<path d="M139.286 52.8475C128.155 77.6994 125.924 105.489 114.793 130.341C105.022 127.112 95.2537 123.872 85.4875 120.623C91.4367 94.0489 88.4627 64.4995 94.3933 37.9369C109.36 42.8971 124.324 47.8673 139.286 52.8475Z" fill="#CBD882"/>
<path d="M110.358 73.4077C117.596 75.8084 122.177 82.9947 120.698 89.4858C119.219 95.9769 112.881 99.5236 106.622 97.4664C100.382 95.3978 95.7897 88.193 96.2818 81.3883C96.7624 74.5651 103.12 71.0069 110.358 73.4077Z" fill="#6D8F25"/>
<path fill-rule="evenodd" clip-rule="evenodd" d="M96.6533 41.024C109.659 45.3493 122.661 49.6685 135.659 53.9815C125.898 77.7334 123.645 103.95 113.872 127.683C105.169 124.803 96.4728 121.918 87.7824 119.03C93.2397 93.8595 91.1774 66.2058 96.6533 41.024ZM100.783 45.1095C99.921 49.0704 99.2319 53.104 98.6442 57.1776C98.4963 58.267 97.3815 58.8258 96.1621 58.4252C94.3717 73.0944 93.9365 88.2597 92.1462 102.929C93.1257 103.273 93.8045 104.416 93.6265 105.498C93.0574 109.56 92.3684 113.594 91.488 117.566C98.2022 119.795 104.916 122.024 111.631 124.252C113.006 120.461 114.21 116.597 115.311 112.693C115.591 111.651 116.615 111.071 117.584 111.396C121.539 97.4151 124.113 82.9796 128.068 68.999C126.849 68.5984 126.08 67.4337 126.378 66.3799C127.461 62.4875 128.683 58.6121 130.058 54.8208C120.3 51.5837 110.541 48.3466 100.783 45.1095Z" fill="#6D8F25"/>
<path d="M100.576 107.513C100.353 106.985 100.604 106.395 101.119 106.36C101.459 106.329 101.706 106.024 101.72 105.631C101.728 105.063 102.248 104.743 102.729 104.984C103.049 105.171 103.422 105.069 103.608 104.749C103.891 104.294 104.501 104.328 104.835 104.787C105.052 105.14 105.435 105.262 105.773 105.105C106.223 104.879 106.784 105.25 106.854 105.821C106.9 106.228 107.192 106.535 107.558 106.591C108.064 106.663 108.393 107.28 108.193 107.787C108.047 108.132 108.165 108.572 108.459 108.8C108.882 109.154 108.882 109.819 108.49 110.138C108.186 110.351 108.086 110.771 108.255 111.127C108.466 111.637 108.155 112.213 107.651 112.267C107.3 112.279 107.023 112.577 106.979 112.963C106.941 113.524 106.421 113.844 105.959 113.591C105.65 113.423 105.277 113.525 105.061 113.837C104.778 114.293 104.18 114.278 103.894 113.814C103.707 113.468 103.324 113.346 103.016 113.51C102.566 113.736 102.047 113.391 101.995 112.808C101.96 112.42 101.688 112.101 101.332 112.065C100.857 111.999 100.528 111.382 100.728 110.876C100.854 110.541 100.737 110.102 100.443 109.873C100.02 109.52 100.008 108.836 100.401 108.517C100.675 108.297 100.745 107.87 100.576 107.513Z" fill="#6D8F25"/>
<path d="M107.596 59.3676C107.283 58.8181 107.594 58.2425 108.222 58.2651C108.682 58.2634 108.988 57.972 109.002 57.5794C108.981 57.0041 109.65 56.7196 110.244 57.0191C110.684 57.2345 111.158 57.1729 111.375 56.8601C111.729 56.4374 112.518 56.514 112.936 57.0249C113.22 57.3617 113.715 57.5428 114.125 57.4184C114.706 57.2397 115.417 57.6462 115.499 58.2358C115.563 58.6313 115.956 58.978 116.424 59.0734C117.061 59.1931 117.498 59.8196 117.269 60.3194C117.093 60.6579 117.241 61.1047 117.636 61.3729C118.179 61.7553 118.221 62.4463 117.727 62.7249C117.363 62.9235 117.282 63.3319 117.503 63.733C117.786 64.2754 117.445 64.8438 116.828 64.8398C116.387 64.83 116.069 65.1029 116.055 65.4955C116.047 66.0637 115.419 66.3738 114.825 66.0743C114.415 65.8661 113.952 65.9462 113.724 66.2404C113.411 66.6889 112.652 66.6193 112.253 66.097C111.969 65.7602 111.485 65.5977 111.105 65.7292C110.584 65.9222 109.892 65.5042 109.761 64.9189C109.667 64.5163 109.293 64.1582 108.866 64.0884C108.24 63.9873 107.792 63.3422 107.991 62.8353C108.125 62.4712 107.948 62.0173 107.564 61.7676C107.01 61.3667 106.938 60.6686 107.402 60.3828C107.736 60.177 107.836 59.7572 107.596 59.3676Z" fill="#6D8F25"/>
<path fill-rule="evenodd" clip-rule="evenodd" d="M115.985 88.4651L115.938 91.4567L112.407 91.4009L112.368 93.9121L109.612 93.8686L109.652 91.3574L107.253 91.3195L107.213 93.8306L104.458 93.7871L104.497 91.2759L100.902 91.2191L100.943 88.6231L104.575 86.3304L104.638 82.3914L101.043 82.3346L101.09 79.3291L104.685 79.3859L104.726 76.7906L107.482 76.8342L107.441 79.4295L109.839 79.4674L109.881 76.8721L112.636 76.9156L112.595 79.5109L116.125 79.5667L116.084 82.2043L112.517 84.4394L112.455 88.4093L115.985 88.4651ZM109.699 88.3658L109.733 86.1839L107.31 87.7025L107.3 88.3279L109.699 88.3658ZM107.36 84.5731L109.783 83.0435L109.792 82.4728L107.393 82.4349L107.36 84.5731Z" fill="#CBD882"/>
<path fill-rule="evenodd" clip-rule="evenodd" d="M113.29 58.2654C115.436 58.9654 116.802 61.0163 116.386 62.834C115.959 64.6331 113.966 65.5535 111.88 64.8678C109.812 64.1707 108.387 62.1055 108.724 60.285C109.08 58.4531 111.133 57.5469 113.29 58.2654ZM113.105 59.045C111.461 58.4962 109.907 59.1722 109.621 60.5772C109.364 61.9893 110.452 63.5464 112.035 64.0811C113.637 64.6043 115.162 63.9211 115.478 62.5232C115.806 61.1439 114.737 59.5753 113.105 59.045Z" fill="#CBD882"/>
<path fill-rule="evenodd" clip-rule="evenodd" d="M105.1 106.006C106.785 106.581 107.835 108.494 107.419 110.311C106.992 112.11 105.303 113.151 103.69 112.609C102.088 112.086 101.086 110.169 101.442 108.337C101.786 106.486 103.408 105.462 105.1 106.006ZM104.945 106.793C103.665 106.378 102.415 107.174 102.147 108.568C101.88 109.961 102.626 111.422 103.875 111.829C105.106 112.248 106.386 111.46 106.714 110.08C107.012 108.694 106.236 107.227 104.945 106.793Z" fill="#CBD882"/>
<path opacity="0.5" d="M98.5122 99.4679C97.8237 104.499 97.0151 109.503 95.9924 114.407C95.4822 114.244 94.9781 114.076 94.4803 113.905C95.4615 108.975 96.2215 103.976 96.8501 98.9304C97.4003 99.1034 97.9544 99.2825 98.5122 99.4679Z" fill="#6D8F25"/>
<path opacity="0.5" d="M125.584 57.9868C124.089 62.7475 122.826 67.5952 121.684 72.4714C121.038 72.2547 120.393 72.038 119.747 71.8213C120.83 66.9309 122.063 62.076 123.498 57.3011C124.203 57.532 124.899 57.7606 125.584 57.9868Z" fill="#6D8F25"/>
<g style="mix-blend-mode:multiply">
<path d="M92.5249 48.2001C89.0771 71.9789 90.6686 97.4142 85.4873 120.623C95.2535 123.872 105.022 127.112 114.793 130.341C114.807 130.281 115.474 129.743 115.488 129.683C118.085 103.484 110.613 72.2011 114.275 46.6519C107.234 46.3569 99.9028 47.2128 92.5249 48.2001Z" fill="#A4AA68"/>
</g>
<path d="M111.197 49.3418C109.225 76.5121 116.649 103.397 114.676 130.567C104.396 130.859 94.1093 131.156 83.8166 131.456C80.3041 104.439 67.4246 77.716 63.9121 50.6997C79.6776 50.2533 95.4394 49.8006 111.197 49.3418Z" fill="#CBD882"/>
<path d="M91.0422 78.5754C98.6646 78.359 105.446 83.5497 106.267 90.1596C107.089 96.7695 102.343 102.279 95.7624 102.442C89.1865 102.653 82.4052 97.4626 80.5488 90.876C78.6739 84.3009 83.4012 78.8033 91.0422 78.5754Z" fill="#6D8F25"/>
<path fill-rule="evenodd" clip-rule="evenodd" d="M67.0957 52.8341C80.7863 52.4543 94.4793 52.0646 108.175 51.6648C107.115 77.3256 113.969 102.744 112.898 128.386C103.743 128.651 94.5891 128.915 85.4347 129.179C81.9472 103.658 70.5646 78.367 67.0957 52.8341ZM72.368 55.2429C72.9125 59.2845 73.6326 63.3203 74.4869 67.3246C74.7201 68.4096 73.8596 69.298 72.5819 69.3429C75.9169 83.7726 80.6939 98.133 84.0289 112.563C85.0525 112.521 86.0866 113.368 86.2899 114.446C87.1556 118.469 87.8757 122.505 88.4088 126.528C95.4882 126.33 102.558 126.13 109.617 125.928C109.629 121.876 109.448 117.841 109.127 113.79C109.051 112.71 109.803 111.812 110.838 111.789C109.749 97.3065 107.255 82.8707 106.165 68.3886C104.888 68.4334 103.775 67.5831 103.699 66.5038C103.379 62.4521 103.197 58.4174 103.209 54.3656C92.9286 54.658 82.6483 54.9505 72.368 55.2429Z" fill="#6D8F25"/>
<path d="M93.5163 113.961C93.1078 113.548 93.1489 112.908 93.6099 112.701C93.9411 112.573 94.0823 112.179 93.9507 111.8C93.7577 111.279 94.1258 110.796 94.6798 110.864C95.0468 110.92 95.3693 110.695 95.4362 110.347C95.5274 109.83 96.1155 109.621 96.5868 109.971C96.911 110.206 97.3108 110.19 97.5619 109.933C97.9315 109.578 98.5612 109.727 98.8327 110.251C99.0199 110.596 99.3998 110.798 99.7653 110.726C100.265 110.623 100.775 111.077 100.774 111.615C100.748 111.989 101.007 112.367 101.359 112.483C101.873 112.652 102.117 113.296 101.841 113.722C101.643 114.023 101.7 114.449 101.962 114.748C102.34 115.155 102.251 115.799 101.789 116.006C101.47 116.152 101.317 116.528 101.419 116.9C101.545 117.437 101.158 117.931 100.671 117.847C100.304 117.792 99.9815 118.016 99.8961 118.376C99.7864 118.904 99.2054 119.083 98.7941 118.747C98.4884 118.501 98.0887 118.516 97.8561 118.762C97.5164 119.125 96.9167 118.982 96.6566 118.477C96.488 118.12 96.1266 117.908 95.7912 117.986C95.2915 118.09 94.8002 117.624 94.8013 117.086C94.8083 116.723 94.5497 116.345 94.197 116.23C93.7015 116.049 93.4099 115.409 93.6853 114.984C93.865 114.694 93.7963 114.25 93.5163 113.961Z" fill="#6D8F25"/>
<path d="M83.655 66.3349C83.1494 65.9297 83.2576 65.2743 83.8457 65.0656C84.2739 64.9298 84.475 64.5499 84.3435 64.1702C84.1391 63.6306 84.6528 63.135 85.3453 63.2203C85.8093 63.2672 86.2404 63.0528 86.3445 62.6816C86.5141 62.1675 87.2892 61.9715 87.8462 62.2939C88.2489 62.5322 88.7757 62.5148 89.1054 62.2605C89.5907 61.8848 90.4074 62.0471 90.6975 62.5595C90.8847 62.9049 91.373 63.116 91.8356 63.0358C92.4808 62.9199 93.1178 63.3721 93.0496 63.9261C93.0241 64.3002 93.3198 64.6555 93.7624 64.7924C94.4221 64.9491 94.6951 65.6 94.3113 66.0157C94.0459 66.3328 94.1032 66.7582 94.4317 67.0421C94.9073 67.4402 94.7806 68.107 94.1924 68.3158C93.7642 68.4516 93.5631 68.8315 93.6946 69.2112C93.8691 69.7436 93.3739 70.2279 92.7414 70.1568C92.2659 70.0913 91.8648 70.3128 91.7608 70.6841C91.6026 71.2167 90.876 71.4084 90.3375 71.0745C89.9348 70.8363 89.4265 70.8423 89.1269 71.1037C88.6902 71.4751 87.9034 71.3199 87.5833 70.8004C87.3662 70.4478 86.8892 70.2553 86.4453 70.324C85.83 70.4471 85.193 69.9948 85.1942 69.4566C85.2082 69.064 84.8825 68.7015 84.4327 68.5947C83.7802 68.4079 83.4701 67.7799 83.8125 67.3386C84.0594 67.0329 84.0021 66.6075 83.655 66.3349Z" fill="#6D8F25"/>
<path fill-rule="evenodd" clip-rule="evenodd" d="M101.57 90.5036L102.704 93.2723L99.4371 94.6106L100.389 96.9347L97.8387 97.9793L96.8868 95.6552L94.6669 96.5645L95.6188 98.8886L93.0684 99.9332L92.1165 97.6091L88.7892 98.9719L87.8052 96.5694L90.2418 93.0321L88.7486 89.3865L85.4213 90.7493L84.282 87.9677L87.6093 86.6049L86.6255 84.203L89.1758 83.1583L90.1596 85.5603L92.3795 84.651L91.3957 82.2491L93.9461 81.2045L94.9299 83.6064L98.1972 82.2682L99.1971 84.7092L96.7981 88.1677L98.3031 91.8419L101.57 90.5036ZM95.7527 92.8865L94.9256 90.8672L93.2957 93.217L93.5328 93.7958L95.7527 92.8865ZM92.1095 90.3207L93.7351 87.9607L93.5188 87.4326L91.2989 88.3418L92.1095 90.3207Z" fill="#CBD882"/>
<path fill-rule="evenodd" clip-rule="evenodd" d="M88.6062 63.3615C90.8891 63.2861 92.8758 64.7243 93.0879 66.5645C93.3116 68.4233 91.7447 69.9517 89.5589 70.0184C87.3731 70.0852 85.3265 68.6328 85.0172 66.8012C84.7265 64.9581 86.3419 63.4254 88.6062 63.3615ZM88.7051 64.1452C86.9862 64.1803 85.7518 65.3759 85.9738 66.775C86.1957 68.174 87.7525 69.2884 89.43 69.2276C91.119 69.1853 92.3163 68.0126 92.1314 66.5907C91.958 65.1873 90.4312 64.0801 88.7051 64.1452Z" fill="#CBD882"/>
<path fill-rule="evenodd" clip-rule="evenodd" d="M97.2573 111.017C99.0248 110.978 100.679 112.416 100.891 114.256C101.115 116.115 99.8804 117.643 98.1915 117.686C96.5025 117.728 94.8971 116.285 94.6064 114.442C94.2971 112.611 95.4713 111.068 97.2573 111.017ZM97.3677 111.82C96.0299 111.85 95.1353 113.016 95.3387 114.426C95.5607 115.825 96.7848 116.94 98.0926 116.902C99.4003 116.864 100.325 115.706 100.14 114.284C99.9666 112.88 98.724 111.777 97.3677 111.82Z" fill="#CBD882"/>
<path opacity="0.5" d="M88.8205 107.128C89.8951 112.071 90.8541 117.035 91.5518 122.032C91.0312 122.045 90.5006 122.057 89.96 122.065C89.2251 117.092 88.2176 112.132 87.083 107.174C87.656 107.163 88.2352 107.147 88.8205 107.128Z" fill="#6D8F25"/>
<path opacity="0.5" d="M100.077 58.88C100.304 63.8598 100.784 68.8365 101.374 73.8232C100.691 73.8512 100.011 73.8691 99.3335 73.8771C98.6772 68.9061 98.1479 63.9336 97.8914 58.9468C98.6138 58.9283 99.3424 58.9061 100.077 58.88Z" fill="#6D8F25"/>
<g style="mix-blend-mode:multiply">
<path d="M65.2681 58.9255C70.1737 82.3447 80.7755 107.988 83.8165 131.456C94.1092 131.156 104.396 130.859 114.676 130.567C114.726 130.024 114.727 129.486 114.777 128.944C108.642 103.363 92.2404 76.5318 86.8711 50.8641C79.9335 53.0648 72.8649 55.8837 65.2681 58.9255Z" fill="#A4AA68"/>
</g>
<path d="M83.6013 55.6942C91.051 81.8719 107.218 104.625 114.649 130.814C105.09 134.604 95.5249 138.398 85.9535 142.195C73.4178 118.024 52.1762 97.2973 39.6405 73.1265C54.2841 67.3133 68.9377 61.5026 83.6013 55.6942Z" fill="#CBD882"/>
<path d="M74.6636 90.0478C81.7437 87.2475 89.8843 89.7834 92.9253 95.7169C95.9549 101.632 93.3884 108.435 87.2647 110.876C81.1481 113.288 73.026 110.74 69.0029 105.207C64.9983 99.6625 67.5649 92.8596 74.6636 90.0478Z" fill="#6D8F25"/>
<path fill-rule="evenodd" clip-rule="evenodd" d="M43.3518 74.0398C56.0931 68.989 68.8282 63.9421 81.5571 58.8989C89.3344 83.3647 104.474 104.907 112.252 129.373C103.719 132.752 95.197 136.134 86.6847 139.518C74.6923 116.727 55.3557 96.8488 43.3518 74.0398ZM49.1471 74.5139C51.032 78.1136 53.0768 81.6405 55.2558 85.1359C55.8273 86.0636 55.351 87.2018 54.1605 87.6792C62.2188 100.095 71.6275 111.96 79.6859 124.376C80.6494 123.987 81.9032 124.444 82.4747 125.371C84.6536 128.867 86.6984 132.394 88.5947 136.012C95.1723 133.393 101.748 130.784 108.32 128.186C106.927 124.386 105.361 120.64 103.703 116.952C103.255 115.974 103.657 114.882 104.62 114.493C98.6603 101.245 91.3571 88.5177 85.3899 75.3C84.188 75.7589 82.8601 75.3484 82.4113 74.3706C80.7534 70.6822 79.1882 66.9366 77.7943 63.1368C68.2476 66.9191 58.6986 70.7115 49.1471 74.5139Z" fill="#6D8F25"/>
<path d="M63.5242 81.0659C62.9273 80.8449 62.7928 80.2111 63.2852 79.8053C63.622 79.5211 63.6918 79.0942 63.4303 78.7945C63.0589 78.3578 63.3841 77.7223 64.0551 77.5649C64.5133 77.4362 64.8344 77.0848 64.8113 76.7151C64.8011 76.1583 65.4462 75.7096 66.0944 75.8478C66.5514 75.9247 67.0424 75.7246 67.2664 75.3818C67.5931 74.8734 68.4025 74.733 68.8367 75.1055C69.1538 75.3709 69.6849 75.402 70.0746 75.162C70.6612 74.8262 71.4151 75.0528 71.5296 75.571C71.6311 75.9436 72.0339 76.1818 72.5007 76.1502C73.1803 76.0899 73.6459 76.5965 73.4392 77.1335C73.3052 77.4976 73.4967 77.8915 73.9022 78.0512C74.4877 78.2537 74.5851 78.9104 74.0927 79.3161C73.7559 79.6004 73.7047 80.0159 73.9476 80.327C74.3005 80.7751 74.0124 81.3878 73.3714 81.5523C72.9203 81.651 72.5993 82.0024 72.6337 82.3907C72.6811 82.9246 72.0545 83.3618 71.4177 83.2422C70.9679 83.1353 70.4954 83.324 70.3014 83.6739C70.0118 84.1595 69.2209 84.2883 68.7496 83.9388C68.4325 83.6734 67.9015 83.6422 67.5304 83.8708C66.9808 84.1838 66.2198 83.9871 66.0453 83.4547C65.9252 83.0935 65.5039 82.8667 65.0371 82.8984C64.3689 82.9772 63.8362 82.4863 64.0244 81.9608C64.1584 81.5967 63.9483 81.2142 63.5242 81.0659Z" fill="#6D8F25"/>
<path fill-rule="evenodd" clip-rule="evenodd" d="M89.148 100.528L90.2821 103.297L87.0148 104.635L87.9667 106.959L85.4163 108.004L84.4644 105.68L82.2445 106.589L83.1964 108.913L80.6461 109.958L79.6941 107.634L76.3669 108.997L75.3828 106.594L77.8194 103.057L76.3262 99.4111L72.9989 100.774L71.8596 97.9924L75.1869 96.6296L74.2031 94.2276L76.7534 93.183L77.7373 95.5849L79.9572 94.6757L78.9733 92.2737L81.5237 91.2291L82.5075 93.6311L85.7748 92.2928L86.7747 94.7339L84.3758 98.1923L85.8807 101.867L89.148 100.528ZM83.3303 102.911L82.5033 100.892L80.8734 103.242L81.1105 103.82L83.3303 102.911ZM79.6871 100.345L81.3128 97.9854L81.0965 97.4573L78.8766 98.3665L79.6871 100.345Z" fill="#CBD882"/>
<path fill-rule="evenodd" clip-rule="evenodd" d="M67.1758 76.564C69.2742 75.7321 71.6331 76.4034 72.4748 78.0605C73.3165 79.7177 72.3681 81.7098 70.3254 82.5075C68.3127 83.3122 65.8867 82.6567 64.9708 81.0453C64.0619 79.4038 65.059 77.4074 67.1758 76.564ZM67.5317 77.2663C65.9244 77.8981 65.1613 79.4433 65.8486 80.6836C66.5474 81.9425 68.3808 82.4256 69.951 81.8166C71.5098 81.1891 72.2357 79.6668 71.5855 78.4036C70.9353 77.1404 69.139 76.6344 67.5317 77.2663Z" fill="#CBD882"/>
<path opacity="0.5" d="M76.4246 68.4344C78.3399 73.0392 80.4823 77.5555 82.7588 82.0402C82.1165 82.2994 81.4765 82.5486 80.8389 82.7878C78.5367 78.3445 76.3272 73.844 74.3748 69.262C75.0542 68.9799 75.7375 68.7041 76.4246 68.4344Z" fill="#6D8F25"/>
</g>
<mask id="mask1_0_1" style="mask-type:alpha" maskUnits="userSpaceOnUse" x="45" y="8" width="120" height="120">
<circle cx="105" cy="68" r="60" fill="#D9D9D9"/>
</mask>
<g mask="url(#mask1_0_1)">
<path d="M183.793 86.4511C159.271 98.3331 139.694 118.201 115.19 130.071C109.794 121.313 104.395 112.549 98.9924 103.779C120.627 87.2515 137.335 62.7266 158.977 46.1689C167.245 59.5901 175.517 73.0175 183.793 86.4511Z" fill="#CBD882"/>
<path d="M148.386 83.6144C152.387 90.1085 151.297 98.5611 145.988 102.574C140.679 106.587 133.535 105.254 130.072 99.6322C126.631 94.0473 127.739 85.5832 132.488 80.661C137.249 75.7574 144.385 77.1202 148.386 83.6144Z" fill="#6D8F25"/>
<path fill-rule="evenodd" clip-rule="evenodd" d="M158.7 49.9997C165.887 61.6644 173.076 73.3353 180.27 85.0123C157.52 96.9034 138.93 115.548 116.191 127.458C111.382 119.653 106.574 111.847 101.765 104.042C122.127 88.273 138.339 65.7687 158.7 49.9997ZM159.261 55.7716C156.039 58.2688 152.926 60.9031 149.852 63.6415C149.028 64.38 147.828 64.0951 147.154 63.0003C136.347 73.0881 126.287 84.4304 115.461 94.5296C115.998 95.4017 115.782 96.7124 114.957 97.451C111.902 100.178 108.782 102.842 105.548 105.321C109.259 111.345 112.966 117.363 116.67 123.375C120.178 121.341 123.595 119.159 126.936 116.896C127.83 116.269 128.984 116.48 129.521 117.352C141.535 109.182 152.795 99.7883 164.78 91.6116C164.117 90.5355 164.276 89.1319 165.181 88.5233C168.529 86.2302 171.928 84.0598 175.436 82.0265C170.048 73.2811 164.657 64.5294 159.261 55.7716Z" fill="#6D8F25"/>
<path d="M118.982 103.444C119.147 102.881 119.72 102.606 120.138 102.911C120.409 103.102 120.805 103.038 121.063 102.751C121.436 102.316 122.049 102.399 122.25 102.89C122.388 103.24 122.727 103.415 123.088 103.295C123.59 103.113 124.047 103.523 123.972 104.107C123.939 104.511 124.157 104.863 124.486 104.942C124.996 105.063 125.191 105.711 124.871 106.189C124.647 106.532 124.674 106.95 124.924 107.232C125.262 107.613 125.116 108.291 124.641 108.558C124.314 108.734 124.124 109.132 124.196 109.498C124.303 110.046 123.879 110.563 123.348 110.532C123.004 110.513 122.656 110.779 122.522 111.143C122.364 111.676 121.75 111.926 121.362 111.628C121.079 111.418 120.653 111.475 120.384 111.744C119.988 112.141 119.374 112.059 119.204 111.575C119.077 111.244 118.72 111.08 118.347 111.181C117.852 111.333 117.406 110.942 117.486 110.406C117.53 110.021 117.324 109.687 116.995 109.608C116.515 109.494 116.343 108.883 116.656 108.435C116.88 108.092 116.882 107.681 116.644 107.418C116.299 107.067 116.445 106.389 116.92 106.122C117.247 105.946 117.455 105.536 117.384 105.171C117.258 104.634 117.689 104.087 118.19 104.111C118.541 104.1 118.889 103.834 118.982 103.444Z" fill="#6D8F25"/>
<path d="M155.307 71.0829C155.408 70.4575 156.022 70.2074 156.509 70.624C156.849 70.9265 157.267 70.8992 157.525 70.6121C157.886 70.1593 158.58 70.3717 158.842 71.0041C159.026 71.428 159.44 71.6848 159.824 71.6018C160.361 71.4759 160.921 72.0525 160.891 72.7106C160.893 73.1704 161.167 73.6157 161.554 73.7868C162.121 74.0007 162.396 74.7787 162.099 75.2942C161.887 75.6555 161.941 76.1595 162.237 76.5148C162.684 77.0329 162.596 77.8039 162.086 78.0154C161.748 78.1726 161.592 78.6267 161.71 79.0664C161.886 79.7259 161.466 80.2915 160.908 80.1747C160.5 80.0935 160.17 80.3478 160.082 80.7862C159.969 81.393 159.332 81.606 158.857 81.2079C158.528 80.924 158.099 80.9328 157.84 81.2199C157.468 81.6541 156.797 81.4788 156.547 80.865C156.362 80.441 155.959 80.2028 155.575 80.2858C155.069 80.4188 154.532 79.8794 154.543 79.2327C154.552 78.7915 154.278 78.3462 153.914 78.2122C153.377 78.0054 153.114 77.246 153.392 76.7419C153.593 76.362 153.527 75.8395 153.243 75.5027C152.819 75.0217 152.896 74.2322 153.382 73.9835C153.709 73.8078 153.865 73.3537 153.736 72.8954C153.571 72.2545 153.968 71.6518 154.503 71.7315C154.9 71.7941 155.219 71.5213 155.307 71.0829Z" fill="#6D8F25"/>
<path fill-rule="evenodd" clip-rule="evenodd" d="M141.683 99.3876L139.367 101.282L137.132 98.5483L135.188 100.138L133.443 98.0046L135.387 96.4148L133.869 94.5577L131.924 96.1476L130.18 94.0141L132.124 92.4242L129.848 89.6408L131.858 87.9973L135.953 89.2932L139.003 86.7994L136.727 84.016L139.053 82.1132L141.33 84.8966L143.339 83.2535L145.084 85.387L143.074 87.0301L144.593 88.8872L146.602 87.2441L148.347 89.3776L146.337 91.0207L148.572 93.7539L146.53 95.4238L142.522 94.1409L139.448 96.6543L141.683 99.3876ZM137.703 94.5208L139.393 93.1395L136.669 92.2678L136.185 92.6637L137.703 94.5208ZM139.092 90.2866L141.824 91.1512L142.266 90.7899L140.747 88.9329L139.092 90.2866Z" fill="#CBD882"/>
<path fill-rule="evenodd" clip-rule="evenodd" d="M160.36 73.8831C161.56 75.8313 161.297 78.2714 159.83 79.38C158.333 80.4815 156.207 79.8972 155.063 78.0417C153.92 76.1862 154.149 73.6905 155.589 72.4963C157.022 71.332 159.171 71.9534 160.36 73.8831ZM159.737 74.3688C158.834 72.903 157.188 72.4326 156.092 73.3126C154.977 74.2041 154.794 76.1087 155.674 77.5375C156.554 78.9662 158.189 79.418 159.327 78.5636C160.446 77.7207 160.64 75.8346 159.737 74.3688Z" fill="#CBD882"/>
<path fill-rule="evenodd" clip-rule="evenodd" d="M123.394 105.205C124.331 106.727 123.916 108.877 122.418 109.978C120.933 111.099 118.99 110.811 118.098 109.364C117.206 107.917 117.675 105.81 119.126 104.635C120.566 103.44 122.468 103.702 123.394 105.205ZM122.783 105.709C122.075 104.559 120.618 104.356 119.515 105.266C118.4 106.157 118.046 107.783 118.72 108.878C119.406 109.991 120.892 110.202 122.03 109.348C123.167 108.493 123.492 106.86 122.783 105.709Z" fill="#CBD882"/>
<path opacity="0.5" d="M122.553 95.9453C118.807 99.3794 114.981 102.684 111.029 105.784C110.747 105.326 110.469 104.874 110.195 104.429C114.124 101.292 117.915 97.9321 121.65 94.4795C121.955 94.9743 122.256 95.4629 122.553 95.9453Z" fill="#6D8F25"/>
<path opacity="0.5" d="M169.977 81.6009C165.763 84.2742 161.685 87.1702 157.676 90.1775C157.318 89.5961 156.96 89.0147 156.602 88.4333C160.588 85.389 164.643 82.4559 168.823 79.7269C169.204 80.3454 169.589 80.9701 169.977 81.6009Z" fill="#6D8F25"/>
<g style="mix-blend-mode:multiply">
<path d="M114.916 129.626C133.053 111.95 145.962 89.4849 164.908 72.5402C159.001 67.1349 153.084 61.7272 147.158 56.3172C130.844 71.7173 116.541 90.383 98.9927 103.779L114.916 129.626Z" fill="#A4AA68"/>
</g>
<path d="M164.499 65.7273C145.538 85.2662 133.935 110.639 114.974 130.178C106.893 123.792 98.8183 117.402 90.7496 111.007C105.417 88.0727 112.757 59.3107 127.413 36.3574C139.775 46.1474 152.137 55.9373 164.499 65.7273Z" fill="#CBD882"/>
<path d="M130.278 75.1627C136.235 79.8884 138.108 88.2053 134.496 93.8094C130.873 99.3949 123.706 100.559 118.53 96.4784C113.384 92.4048 111.53 84.0764 114.312 77.8317C117.124 71.5941 124.291 70.4299 130.278 75.1627Z" fill="#6D8F25"/>
<path fill-rule="evenodd" clip-rule="evenodd" d="M128.484 40.0491C139.218 48.5549 149.959 57.0569 160.707 65.5551C143.399 84.5364 132.309 108.416 115.009 127.367C107.818 121.678 100.631 115.995 93.4475 110.318C107.197 88.5117 114.723 61.8369 128.484 40.0491ZM130.963 45.279C128.783 48.7208 126.751 52.2768 124.812 55.9027C124.3 56.8581 123.079 56.9958 122.061 56.2153C115.364 69.4021 109.766 83.4991 103.058 96.6673C103.869 97.3194 104.113 98.6285 103.582 99.5953C101.643 103.221 99.6292 106.766 97.4494 110.208C102.985 114.596 108.527 118.98 114.076 123.36C116.678 120.272 119.122 117.052 121.502 113.768C122.127 112.871 123.265 112.682 124.095 113.323C132.58 101.543 139.936 88.8455 148.421 77.0656C147.421 76.2737 147.095 74.9133 147.731 74.0349C150.081 70.7443 152.555 67.5308 155.147 64.4242C147.085 58.0425 139.024 51.6607 130.963 45.279Z" fill="#6D8F25"/>
<path d="M109.43 103.851C109.378 103.269 109.836 102.807 110.309 102.951C110.65 103.048 110.995 102.861 111.148 102.485C111.355 101.949 111.94 101.818 112.3 102.237C112.55 102.518 112.943 102.532 113.217 102.312C113.628 101.982 114.206 102.214 114.343 102.769C114.456 103.161 114.762 103.407 115.12 103.366C115.624 103.311 116.016 103.864 115.899 104.422C115.806 104.812 115.979 105.217 116.288 105.386C116.739 105.619 116.859 106.313 116.494 106.717C116.236 107.005 116.196 107.439 116.39 107.754C116.676 108.218 116.441 108.875 115.945 109.026C115.603 109.135 115.379 109.478 115.395 109.878C115.405 110.434 114.935 110.877 114.444 110.745C114.121 110.636 113.746 110.816 113.582 111.173C113.352 111.673 112.737 111.796 112.4 111.415C112.161 111.153 111.776 111.109 111.483 111.34C111.061 111.651 110.494 111.438 110.398 110.908C110.315 110.524 110.009 110.277 109.663 110.337C109.159 110.392 108.79 109.876 108.937 109.325C109.041 108.954 108.898 108.556 108.589 108.387C108.138 108.154 108.059 107.485 108.395 107.074C108.653 106.787 108.693 106.353 108.487 106.019C108.231 105.562 108.418 104.91 108.902 104.74C109.244 104.631 109.445 104.251 109.43 103.851Z" fill="#6D8F25"/>
<path d="M132.498 61.023C132.363 60.3891 132.863 59.9534 133.459 60.1744C133.865 60.3341 134.263 60.1912 134.416 59.8156C134.593 59.2716 135.314 59.2369 135.786 59.7136C136.112 60.076 136.58 60.1715 136.914 59.9657C137.367 59.6614 138.092 60.008 138.294 60.6261C138.441 61.0729 138.871 61.3968 139.294 61.418C139.892 61.4334 140.419 62.0813 140.314 62.6581C140.232 63.0665 140.458 63.5161 140.861 63.7544C141.448 64.0839 141.633 64.8405 141.244 65.2076C140.956 65.4876 140.958 65.9473 141.228 66.3441C141.619 66.8964 141.414 67.5604 140.854 67.6492C140.459 67.7136 140.216 68.0678 140.304 68.5004C140.397 69.1085 139.867 69.5371 139.289 69.3046C138.883 69.1449 138.478 69.3179 138.344 69.682C138.126 70.2004 137.446 70.2607 136.973 69.7841C136.671 69.4587 136.202 69.3632 135.898 69.5761C135.446 69.8804 134.762 69.5596 134.56 68.9415C134.406 68.5247 134.006 68.2079 133.613 68.1938C133.045 68.1855 132.541 67.5747 132.616 66.9907C132.686 66.5638 132.449 66.0956 132.057 65.876C131.512 65.5721 131.297 64.8084 131.663 64.4042C131.921 64.1171 131.908 63.6388 131.649 63.2606C131.258 62.7082 131.422 62.0186 131.97 61.9112C132.354 61.8282 132.566 61.4669 132.498 61.023Z" fill="#6D8F25"/>
<path fill-rule="evenodd" clip-rule="evenodd" d="M129.362 92.1987L127.836 94.7721L124.799 92.971L123.518 95.1311L121.147 93.7252L122.428 91.565L120.365 90.3413L119.084 92.5014L116.713 91.0955L117.995 88.9354L114.902 87.1012L116.227 84.8682L120.518 84.6813L122.527 81.2929L119.435 79.4587L120.968 76.8734L124.061 78.7076L125.385 76.4751L127.755 77.881L126.431 80.1135L128.494 81.3372L129.819 79.1047L132.189 80.5106L130.865 82.7431L133.902 84.5443L132.556 86.8131L128.35 86.9826L126.325 90.3976L129.362 92.1987ZM123.955 88.9917L125.068 87.1148L122.21 87.23L121.891 87.7679L123.955 88.9917ZM123.807 84.538L126.67 84.4134L126.961 83.9225L124.898 82.6988L123.807 84.538Z" fill="#CBD882"/>
<path fill-rule="evenodd" clip-rule="evenodd" d="M138.204 61.9354C139.981 63.3237 140.585 65.7162 139.568 67.2644C138.532 68.8239 136.366 69.0063 134.631 67.6437C132.926 66.2882 132.28 63.87 133.233 62.259C134.186 60.6481 136.435 60.5171 138.204 61.9354ZM137.764 62.5909C136.417 61.5265 134.714 61.6287 133.98 62.8483C133.247 64.0679 133.725 65.9237 135.049 66.951C136.366 68.0083 138.046 67.869 138.821 66.6751C139.577 65.4926 139.122 63.6739 137.764 62.5909Z" fill="#CBD882"/>
<path fill-rule="evenodd" clip-rule="evenodd" d="M114.178 103.997C115.577 105.106 115.887 107.27 114.881 108.837C113.864 110.385 111.951 110.77 110.615 109.724C109.269 108.66 109.001 106.521 109.954 104.91C110.899 103.329 112.778 102.889 114.178 103.997ZM113.778 104.679C112.696 103.835 111.257 104.159 110.523 105.378C109.802 106.616 110.034 108.24 111.045 109.05C112.056 109.861 113.536 109.563 114.311 108.369C115.067 107.186 114.831 105.515 113.778 104.679Z" fill="#CBD882"/>
<path opacity="0.5" d="M110.222 95.5815C107.853 100.087 105.396 104.493 102.751 108.759C102.331 108.437 101.918 108.112 101.51 107.783C104.114 103.491 106.536 99.0298 108.864 94.4986C109.314 94.8696 109.767 95.2305 110.222 95.5815Z" fill="#6D8F25"/>
<path opacity="0.5" d="M149.875 65.8801C146.841 69.8478 143.996 73.9553 141.257 78.1513C140.712 77.7365 140.169 77.3118 139.628 76.8771C142.344 72.644 145.147 68.5109 148.139 64.5175C148.708 64.9693 149.286 65.4236 149.875 65.8801Z" fill="#6D8F25"/>
<g style="mix-blend-mode:multiply">
<path d="M116.23 129.225C127.265 106.378 131.123 76.0759 143.153 53.6392C138.083 49.3143 129.18 48.7833 122.315 45.9483C112.089 66.1212 110.573 109.239 98.5704 128.023C106.052 133.935 110.534 131.737 116.23 129.225Z" fill="#A4AA68"/>
</g>
<path d="M139.286 52.8475C128.155 77.6994 125.924 105.489 114.793 130.341C105.022 127.112 95.2537 123.872 85.4875 120.623C91.4367 94.0489 88.4627 64.4995 94.3933 37.9369C109.36 42.8971 124.324 47.8673 139.286 52.8475Z" fill="#CBD882"/>
<path d="M110.358 73.4077C117.596 75.8084 122.177 82.9947 120.698 89.4858C119.219 95.9769 112.881 99.5236 106.622 97.4664C100.382 95.3978 95.7897 88.193 96.2818 81.3883C96.7624 74.5651 103.12 71.0069 110.358 73.4077Z" fill="#6D8F25"/>
<path fill-rule="evenodd" clip-rule="evenodd" d="M96.6533 41.024C109.659 45.3493 122.661 49.6685 135.659 53.9815C125.898 77.7334 123.645 103.95 113.872 127.683C105.169 124.803 96.4728 121.918 87.7824 119.03C93.2397 93.8595 91.1774 66.2058 96.6533 41.024ZM100.783 45.1095C99.921 49.0704 99.2319 53.104 98.6442 57.1776C98.4963 58.267 97.3815 58.8258 96.1621 58.4252C94.3717 73.0944 93.9365 88.2597 92.1462 102.929C93.1257 103.273 93.8045 104.416 93.6265 105.498C93.0574 109.56 92.3684 113.594 91.488 117.566C98.2022 119.795 104.916 122.024 111.631 124.252C113.006 120.461 114.21 116.597 115.311 112.693C115.591 111.651 116.615 111.071 117.584 111.396C121.539 97.4151 124.113 82.9796 128.068 68.999C126.849 68.5984 126.08 67.4337 126.378 66.3799C127.461 62.4875 128.683 58.6121 130.058 54.8208C120.3 51.5837 110.541 48.3466 100.783 45.1095Z" fill="#6D8F25"/>
<path d="M100.576 107.513C100.353 106.985 100.604 106.395 101.119 106.36C101.459 106.329 101.706 106.024 101.72 105.631C101.728 105.063 102.248 104.743 102.729 104.984C103.049 105.171 103.422 105.069 103.608 104.749C103.891 104.294 104.501 104.328 104.835 104.787C105.052 105.14 105.435 105.262 105.773 105.105C106.223 104.879 106.784 105.25 106.854 105.821C106.9 106.228 107.192 106.535 107.558 106.591C108.064 106.663 108.393 107.28 108.193 107.787C108.047 108.132 108.165 108.572 108.459 108.8C108.882 109.154 108.882 109.819 108.49 110.138C108.186 110.351 108.086 110.771 108.255 111.127C108.466 111.637 108.155 112.213 107.651 112.267C107.3 112.279 107.023 112.577 106.979 112.963C106.941 113.524 106.421 113.844 105.959 113.591C105.65 113.423 105.277 113.525 105.061 113.837C104.778 114.293 104.18 114.278 103.894 113.814C103.707 113.468 103.324 113.346 103.016 113.51C102.566 113.736 102.047 113.391 101.995 112.808C101.96 112.42 101.688 112.101 101.332 112.065C100.857 111.999 100.528 111.382 100.728 110.876C100.854 110.541 100.737 110.102 100.443 109.873C100.02 109.52 100.008 108.836 100.401 108.517C100.675 108.297 100.745 107.87 100.576 107.513Z" fill="#6D8F25"/>
<path d="M107.596 59.3676C107.283 58.8181 107.594 58.2425 108.222 58.2651C108.682 58.2634 108.988 57.972 109.002 57.5794C108.981 57.0041 109.65 56.7196 110.244 57.0191C110.684 57.2345 111.158 57.1729 111.375 56.8601C111.729 56.4374 112.518 56.514 112.936 57.0249C113.22 57.3617 113.715 57.5428 114.125 57.4184C114.706 57.2397 115.417 57.6462 115.499 58.2358C115.563 58.6313 115.956 58.978 116.424 59.0734C117.061 59.1931 117.498 59.8196 117.269 60.3194C117.093 60.6579 117.241 61.1047 117.636 61.3729C118.179 61.7553 118.221 62.4463 117.727 62.7249C117.363 62.9235 117.282 63.3319 117.503 63.733C117.786 64.2754 117.445 64.8438 116.828 64.8398C116.387 64.83 116.069 65.1029 116.055 65.4955C116.047 66.0637 115.419 66.3738 114.825 66.0743C114.415 65.8661 113.952 65.9462 113.724 66.2404C113.411 66.6889 112.652 66.6193 112.253 66.097C111.969 65.7602 111.485 65.5977 111.105 65.7292C110.584 65.9222 109.892 65.5042 109.761 64.9189C109.667 64.5163 109.293 64.1582 108.866 64.0884C108.24 63.9873 107.792 63.3422 107.991 62.8353C108.125 62.4712 107.948 62.0173 107.564 61.7676C107.01 61.3667 106.938 60.6686 107.402 60.3828C107.736 60.177 107.836 59.7572 107.596 59.3676Z" fill="#6D8F25"/>
<path fill-rule="evenodd" clip-rule="evenodd" d="M115.985 88.4651L115.938 91.4567L112.407 91.4009L112.368 93.9121L109.612 93.8686L109.652 91.3574L107.253 91.3195L107.213 93.8306L104.458 93.7871L104.497 91.2759L100.902 91.2191L100.943 88.6231L104.575 86.3304L104.638 82.3914L101.043 82.3346L101.09 79.3291L104.685 79.3859L104.726 76.7906L107.482 76.8342L107.441 79.4295L109.839 79.4674L109.881 76.8721L112.636 76.9156L112.595 79.5109L116.125 79.5667L116.084 82.2043L112.517 84.4394L112.455 88.4093L115.985 88.4651ZM109.699 88.3658L109.733 86.1839L107.31 87.7025L107.3 88.3279L109.699 88.3658ZM107.36 84.5731L109.783 83.0435L109.792 82.4728L107.393 82.4349L107.36 84.5731Z" fill="#CBD882"/>
<path fill-rule="evenodd" clip-rule="evenodd" d="M113.29 58.2654C115.436 58.9654 116.802 61.0163 116.386 62.834C115.959 64.6331 113.966 65.5535 111.88 64.8678C109.812 64.1707 108.387 62.1055 108.724 60.285C109.08 58.4531 111.133 57.5469 113.29 58.2654ZM113.105 59.045C111.461 58.4962 109.907 59.1722 109.621 60.5772C109.364 61.9893 110.452 63.5464 112.035 64.0811C113.637 64.6043 115.162 63.9211 115.478 62.5232C115.806 61.1439 114.737 59.5753 113.105 59.045Z" fill="#CBD882"/>
<path fill-rule="evenodd" clip-rule="evenodd" d="M105.1 106.006C106.785 106.581 107.835 108.494 107.419 110.311C106.992 112.11 105.303 113.151 103.69 112.609C102.088 112.086 101.086 110.169 101.442 108.337C101.786 106.486 103.408 105.462 105.1 106.006ZM104.945 106.793C103.665 106.378 102.415 107.174 102.147 108.568C101.88 109.961 102.626 111.422 103.875 111.829C105.106 112.248 106.386 111.46 106.714 110.08C107.012 108.694 106.236 107.227 104.945 106.793Z" fill="#CBD882"/>
<path opacity="0.5" d="M98.5122 99.4679C97.8237 104.499 97.0151 109.503 95.9924 114.407C95.4822 114.244 94.9781 114.076 94.4803 113.905C95.4615 108.975 96.2215 103.976 96.8501 98.9304C97.4003 99.1034 97.9544 99.2825 98.5122 99.4679Z" fill="#6D8F25"/>
<path opacity="0.5" d="M125.584 57.9868C124.089 62.7475 122.826 67.5952 121.684 72.4714C121.038 72.2547 120.393 72.038 119.747 71.8213C120.83 66.9309 122.063 62.076 123.498 57.3011C124.203 57.532 124.899 57.7606 125.584 57.9868Z" fill="#6D8F25"/>
<g style="mix-blend-mode:multiply">
<path d="M92.5249 48.2001C89.0771 71.9789 90.6686 97.4142 85.4873 120.623C95.2535 123.872 105.022 127.112 114.793 130.341C114.807 130.281 115.474 129.743 115.488 129.683C118.085 103.484 110.613 72.2011 114.275 46.6519C107.234 46.3569 99.9028 47.2128 92.5249 48.2001Z" fill="#A4AA68"/>
</g>
<path d="M111.197 49.3418C109.225 76.5121 116.649 103.397 114.676 130.567C104.396 130.859 94.1093 131.156 83.8166 131.456C80.3041 104.439 67.4246 77.716 63.9121 50.6997C79.6776 50.2533 95.4394 49.8006 111.197 49.3418Z" fill="#CBD882"/>
<path d="M91.0422 78.5754C98.6646 78.359 105.446 83.5497 106.267 90.1596C107.089 96.7695 102.343 102.279 95.7624 102.442C89.1865 102.653 82.4052 97.4626 80.5488 90.876C78.6739 84.3009 83.4012 78.8033 91.0422 78.5754Z" fill="#6D8F25"/>
<path fill-rule="evenodd" clip-rule="evenodd" d="M67.0957 52.8341C80.7863 52.4543 94.4793 52.0646 108.175 51.6648C107.115 77.3256 113.969 102.744 112.898 128.386C103.743 128.651 94.5891 128.915 85.4347 129.179C81.9472 103.658 70.5646 78.367 67.0957 52.8341ZM72.368 55.2429C72.9125 59.2845 73.6326 63.3203 74.4869 67.3246C74.7201 68.4096 73.8596 69.298 72.5819 69.3429C75.9169 83.7726 80.6939 98.133 84.0289 112.563C85.0525 112.521 86.0866 113.368 86.2899 114.446C87.1556 118.469 87.8757 122.505 88.4088 126.528C95.4882 126.33 102.558 126.13 109.617 125.928C109.629 121.876 109.448 117.841 109.127 113.79C109.051 112.71 109.803 111.812 110.838 111.789C109.749 97.3065 107.255 82.8707 106.165 68.3886C104.888 68.4334 103.775 67.5831 103.699 66.5038C103.379 62.4521 103.197 58.4174 103.209 54.3656C92.9286 54.658 82.6483 54.9505 72.368 55.2429Z" fill="#6D8F25"/>
<path d="M93.5163 113.961C93.1078 113.548 93.1489 112.908 93.6099 112.701C93.9411 112.573 94.0823 112.179 93.9507 111.8C93.7577 111.279 94.1258 110.796 94.6798 110.864C95.0468 110.92 95.3693 110.695 95.4362 110.347C95.5274 109.83 96.1155 109.621 96.5868 109.971C96.911 110.206 97.3108 110.19 97.5619 109.933C97.9315 109.578 98.5612 109.727 98.8327 110.251C99.0199 110.596 99.3998 110.798 99.7653 110.726C100.265 110.623 100.775 111.077 100.774 111.615C100.748 111.989 101.007 112.367 101.359 112.483C101.873 112.652 102.117 113.296 101.841 113.722C101.643 114.023 101.7 114.449 101.962 114.748C102.34 115.155 102.251 115.799 101.789 116.006C101.47 116.152 101.317 116.528 101.419 116.9C101.545 117.437 101.158 117.931 100.671 117.847C100.304 117.792 99.9815 118.016 99.8961 118.376C99.7864 118.904 99.2054 119.083 98.7941 118.747C98.4884 118.501 98.0887 118.516 97.8561 118.762C97.5164 119.125 96.9167 118.982 96.6566 118.477C96.488 118.12 96.1266 117.908 95.7912 117.986C95.2915 118.09 94.8002 117.624 94.8013 117.086C94.8083 116.723 94.5497 116.345 94.197 116.23C93.7015 116.049 93.4099 115.409 93.6853 114.984C93.865 114.694 93.7963 114.25 93.5163 113.961Z" fill="#6D8F25"/>
<path d="M83.655 66.3349C83.1494 65.9297 83.2576 65.2743 83.8457 65.0656C84.2739 64.9298 84.475 64.5499 84.3435 64.1702C84.1391 63.6306 84.6528 63.135 85.3453 63.2203C85.8093 63.2672 86.2404 63.0528 86.3445 62.6816C86.5141 62.1675 87.2892 61.9715 87.8462 62.2939C88.2489 62.5322 88.7757 62.5148 89.1054 62.2605C89.5907 61.8848 90.4074 62.0471 90.6975 62.5595C90.8847 62.9049 91.373 63.116 91.8356 63.0358C92.4808 62.9199 93.1178 63.3721 93.0496 63.9261C93.0241 64.3002 93.3198 64.6555 93.7624 64.7924C94.4221 64.9491 94.6951 65.6 94.3113 66.0157C94.0459 66.3328 94.1032 66.7582 94.4317 67.0421C94.9073 67.4402 94.7806 68.107 94.1924 68.3158C93.7642 68.4516 93.5631 68.8315 93.6946 69.2112C93.8691 69.7436 93.3739 70.2279 92.7414 70.1568C92.2659 70.0913 91.8648 70.3128 91.7608 70.6841C91.6026 71.2167 90.876 71.4084 90.3375 71.0745C89.9348 70.8363 89.4265 70.8423 89.1269 71.1037C88.6902 71.4751 87.9034 71.3199 87.5833 70.8004C87.3662 70.4478 86.8892 70.2553 86.4453 70.324C85.83 70.4471 85.193 69.9948 85.1942 69.4566C85.2082 69.064 84.8825 68.7015 84.4327 68.5947C83.7802 68.4079 83.4701 67.7799 83.8125 67.3386C84.0594 67.0329 84.0021 66.6075 83.655 66.3349Z" fill="#6D8F25"/>
<path fill-rule="evenodd" clip-rule="evenodd" d="M101.57 90.5036L102.704 93.2723L99.4371 94.6106L100.389 96.9347L97.8387 97.9793L96.8868 95.6552L94.6669 96.5645L95.6188 98.8886L93.0684 99.9332L92.1165 97.6091L88.7892 98.9719L87.8052 96.5694L90.2418 93.0321L88.7486 89.3865L85.4213 90.7493L84.282 87.9677L87.6093 86.6049L86.6255 84.203L89.1758 83.1583L90.1596 85.5603L92.3795 84.651L91.3957 82.2491L93.9461 81.2045L94.9299 83.6064L98.1972 82.2682L99.1971 84.7092L96.7981 88.1677L98.3031 91.8419L101.57 90.5036ZM95.7527 92.8865L94.9256 90.8672L93.2957 93.217L93.5328 93.7958L95.7527 92.8865ZM92.1095 90.3207L93.7351 87.9607L93.5188 87.4326L91.2989 88.3418L92.1095 90.3207Z" fill="#CBD882"/>
<path fill-rule="evenodd" clip-rule="evenodd" d="M88.6062 63.3615C90.8891 63.2861 92.8758 64.7243 93.0879 66.5645C93.3116 68.4233 91.7447 69.9517 89.5589 70.0184C87.3731 70.0852 85.3265 68.6328 85.0172 66.8012C84.7265 64.9581 86.3419 63.4254 88.6062 63.3615ZM88.7051 64.1452C86.9862 64.1803 85.7518 65.3759 85.9738 66.775C86.1957 68.174 87.7525 69.2884 89.43 69.2276C91.119 69.1853 92.3163 68.0126 92.1314 66.5907C91.958 65.1873 90.4312 64.0801 88.7051 64.1452Z" fill="#CBD882"/>
<path fill-rule="evenodd" clip-rule="evenodd" d="M97.2573 111.017C99.0248 110.978 100.679 112.416 100.891 114.256C101.115 116.115 99.8804 117.643 98.1915 117.686C96.5025 117.728 94.8971 116.285 94.6064 114.442C94.2971 112.611 95.4713 111.068 97.2573 111.017ZM97.3677 111.82C96.0299 111.85 95.1353 113.016 95.3387 114.426C95.5607 115.825 96.7848 116.94 98.0926 116.902C99.4003 116.864 100.325 115.706 100.14 114.284C99.9666 112.88 98.724 111.777 97.3677 111.82Z" fill="#CBD882"/>
<path opacity="0.5" d="M88.8205 107.128C89.8951 112.071 90.8541 117.035 91.5518 122.032C91.0312 122.045 90.5006 122.057 89.96 122.065C89.2251 117.092 88.2176 112.132 87.083 107.174C87.656 107.163 88.2352 107.147 88.8205 107.128Z" fill="#6D8F25"/>
<path opacity="0.5" d="M100.077 58.88C100.304 63.8598 100.784 68.8365 101.374 73.8232C100.691 73.8512 100.011 73.8691 99.3335 73.8771C98.6772 68.9061 98.1479 63.9336 97.8914 58.9468C98.6138 58.9283 99.3424 58.9061 100.077 58.88Z" fill="#6D8F25"/>
<g style="mix-blend-mode:multiply">
<path d="M65.2681 58.9255C70.1737 82.3447 80.7755 107.988 83.8165 131.456C94.1092 131.156 104.396 130.859 114.676 130.567C114.726 130.024 114.727 129.486 114.777 128.944C108.642 103.363 92.2404 76.5318 86.8711 50.8641C79.9335 53.0648 72.8649 55.8837 65.2681 58.9255Z" fill="#A4AA68"/>
</g>
<path d="M83.6013 55.6942C91.051 81.8719 107.218 104.625 114.649 130.814C105.09 134.604 95.5249 138.398 85.9535 142.195C73.4178 118.024 52.1762 97.2973 39.6405 73.1265C54.2841 67.3133 68.9377 61.5026 83.6013 55.6942Z" fill="#CBD882"/>
<path d="M74.6636 90.0478C81.7437 87.2475 89.8843 89.7834 92.9253 95.7169C95.9549 101.632 93.3884 108.435 87.2647 110.876C81.1481 113.288 73.026 110.74 69.0029 105.207C64.9983 99.6625 67.5649 92.8596 74.6636 90.0478Z" fill="#6D8F25"/>
<path fill-rule="evenodd" clip-rule="evenodd" d="M43.3518 74.0398C56.0931 68.989 68.8282 63.9421 81.5571 58.8989C89.3344 83.3647 104.474 104.907 112.252 129.373C103.719 132.752 95.197 136.134 86.6847 139.518C74.6923 116.727 55.3557 96.8488 43.3518 74.0398ZM49.1471 74.5139C51.032 78.1136 53.0768 81.6405 55.2558 85.1359C55.8273 86.0636 55.351 87.2018 54.1605 87.6792C62.2188 100.095 71.6275 111.96 79.6859 124.376C80.6494 123.987 81.9032 124.444 82.4747 125.371C84.6536 128.867 86.6984 132.394 88.5947 136.012C95.1723 133.393 101.748 130.784 108.32 128.186C106.927 124.386 105.361 120.64 103.703 116.952C103.255 115.974 103.657 114.882 104.62 114.493C98.6603 101.245 91.3571 88.5177 85.3899 75.3C84.188 75.7589 82.8601 75.3484 82.4113 74.3706C80.7534 70.6822 79.1882 66.9366 77.7943 63.1368C68.2476 66.9191 58.6986 70.7115 49.1471 74.5139Z" fill="#6D8F25"/>
<path d="M89.0935 122.446C88.5637 122.209 88.3992 121.568 88.7503 121.224C89.0129 120.985 88.9969 120.585 88.7541 120.274C88.4012 119.826 88.5851 119.252 89.1147 119.156C89.4988 119.073 89.7042 118.742 89.644 118.395C89.5481 117.865 90.0519 117.478 90.6145 117.644C90.9858 117.748 91.384 117.605 91.5224 117.289C91.7263 116.831 92.3945 116.752 92.8101 117.136C93.1086 117.412 93.5427 117.452 93.8395 117.269C94.2849 116.995 94.9232 117.242 95.0976 117.774C95.2177 118.135 95.5719 118.378 95.9531 118.373C96.5099 118.363 96.957 118.881 96.8245 119.372C96.739 119.732 96.949 120.115 97.2875 120.29C97.7802 120.55 97.9147 121.184 97.5451 121.539C97.3125 121.785 97.2799 122.189 97.5042 122.512C97.8385 122.971 97.636 123.557 97.1364 123.66C96.7709 123.731 96.5541 124.044 96.5957 124.402C96.673 124.943 96.1878 125.319 95.6737 125.149C95.3096 125.015 94.9413 125.165 94.803 125.481C94.599 125.939 93.998 126.003 93.5823 125.619C93.3023 125.33 92.8754 125.261 92.59 125.462C92.1818 125.714 91.5435 125.467 91.369 124.934C91.2304 124.585 90.8762 124.342 90.495 124.347C89.9567 124.345 89.4911 123.839 89.5936 123.341C89.6606 122.992 89.4619 122.628 89.0935 122.446Z" fill="#6D8F25"/>
<path d="M63.5242 81.0659C62.9273 80.8449 62.7928 80.2111 63.2852 79.8053C63.622 79.5211 63.6918 79.0942 63.4303 78.7945C63.0589 78.3578 63.3841 77.7223 64.0551 77.5649C64.5133 77.4362 64.8344 77.0848 64.8113 76.7151C64.8011 76.1583 65.4462 75.7096 66.0944 75.8478C66.5514 75.9247 67.0424 75.7246 67.2664 75.3818C67.5931 74.8734 68.4025 74.733 68.8367 75.1055C69.1538 75.3709 69.6849 75.402 70.0746 75.162C70.6612 74.8262 71.4151 75.0528 71.5296 75.571C71.6311 75.9436 72.0339 76.1818 72.5007 76.1502C73.1803 76.0899 73.6459 76.5965 73.4392 77.1335C73.3052 77.4976 73.4967 77.8915 73.9022 78.0512C74.4877 78.2537 74.5851 78.9104 74.0927 79.3161C73.7559 79.6004 73.7047 80.0159 73.9476 80.327C74.3005 80.7751 74.0124 81.3878 73.3714 81.5523C72.9203 81.651 72.5993 82.0024 72.6337 82.3907C72.6811 82.9246 72.0545 83.3618 71.4177 83.2422C70.9679 83.1353 70.4954 83.324 70.3014 83.6739C70.0118 84.1595 69.2209 84.2883 68.7496 83.9388C68.4325 83.6734 67.9015 83.6422 67.5304 83.8708C66.9808 84.1838 66.2198 83.9871 66.0453 83.4547C65.9252 83.0935 65.5039 82.8667 65.0371 82.8984C64.3689 82.9772 63.8362 82.4863 64.0244 81.9608C64.1584 81.5967 63.9483 81.2142 63.5242 81.0659Z" fill="#6D8F25"/>
<path fill-rule="evenodd" clip-rule="evenodd" d="M89.148 100.528L90.2821 103.297L87.0148 104.635L87.9667 106.959L85.4163 108.004L84.4644 105.68L82.2445 106.589L83.1964 108.913L80.6461 109.958L79.6941 107.634L76.3669 108.997L75.3828 106.594L77.8194 103.057L76.3262 99.4111L72.9989 100.774L71.8596 97.9924L75.1869 96.6296L74.2031 94.2276L76.7534 93.183L77.7373 95.5849L79.9572 94.6757L78.9733 92.2737L81.5237 91.2291L82.5075 93.6311L85.7748 92.2928L86.7747 94.7339L84.3758 98.1923L85.8807 101.867L89.148 100.528ZM83.3303 102.911L82.5033 100.892L80.8734 103.242L81.1105 103.82L83.3303 102.911ZM79.6871 100.345L81.3128 97.9854L81.0965 97.4573L78.8766 98.3665L79.6871 100.345Z" fill="#CBD882"/>
<path fill-rule="evenodd" clip-rule="evenodd" d="M67.1758 76.564C69.2742 75.7321 71.6331 76.4034 72.4748 78.0605C73.3165 79.7177 72.3681 81.7098 70.3254 82.5075C68.3127 83.3122 65.8867 82.6567 64.9708 81.0453C64.0619 79.4038 65.059 77.4074 67.1758 76.564ZM67.5317 77.2663C65.9244 77.8981 65.1613 79.4433 65.8486 80.6836C66.5474 81.9425 68.3808 82.4256 69.951 81.8166C71.5098 81.1891 72.2357 79.6668 71.5855 78.4036C70.9353 77.1404 69.139 76.6344 67.5317 77.2663Z" fill="#CBD882"/>
<path fill-rule="evenodd" clip-rule="evenodd" d="M91.5911 118.398C93.2355 117.743 95.2932 118.549 96.1349 120.206C96.9581 121.875 96.3294 123.721 94.7521 124.36C93.1819 124.969 91.1913 124.148 90.2753 122.536C89.3665 120.895 89.9281 119.064 91.5911 118.398ZM91.9769 119.108C90.7194 119.601 90.276 121 90.9748 122.259C91.6621 123.499 93.1758 124.128 94.3848 123.639C95.6053 123.169 96.0857 121.747 95.4355 120.484C94.7853 119.22 93.2231 118.596 91.9769 119.108Z" fill="#CBD882"/>
<path opacity="0.5" d="M82.3351 117.625C85.0355 121.925 87.6318 126.264 90.0011 130.692C89.5101 130.892 89.0152 131.086 88.5166 131.273C86.1102 126.869 83.4654 122.534 80.7092 118.268C81.245 118.057 81.7869 117.843 82.3351 117.625Z" fill="#6D8F25"/>
<path opacity="0.5" d="M76.4246 68.4344C78.3399 73.0392 80.4823 77.5555 82.7588 82.0402C82.1165 82.2994 81.4765 82.5486 80.8389 82.7878C78.5367 78.3445 76.3272 73.844 74.3748 69.262C75.0542 68.9799 75.7375 68.7041 76.4246 68.4344Z" fill="#6D8F25"/>
</g>
<path fill-rule="evenodd" clip-rule="evenodd" d="M180.777 121.732C178.568 121.732 176.777 123.523 176.777 125.732V148.268C176.777 150.477 178.568 152.268 180.777 152.268H202.295C202.443 152.268 202.589 152.26 202.732 152.244V152.268H218L206.295 137.509L218 121.732H202.732V121.756C202.589 121.74 202.443 121.732 202.295 121.732H180.777Z" fill="#8B2C3C"/>
<path fill-rule="evenodd" clip-rule="evenodd" d="M37.2231 121.732C39.4323 121.732 41.2231 123.523 41.2231 125.732V148.268C41.2231 150.477 39.4323 152.268 37.2231 152.268H15.7053C15.5574 152.268 15.4115 152.26 15.2678 152.244V152.268H-7.24792e-05L11.7053 137.509L-7.24792e-05 121.732H15.2678V121.756C15.4115 121.74 15.5574 121.732 15.7053 121.732H37.2231Z" fill="#8B2C3C"/>
<rect x="22.5" y="109" width="174" height="35" rx="4" fill="#BA393E"/>
<path d="M41.3686 125.383H39.1911C39.1513 125.101 39.0701 124.851 38.9474 124.632C38.8248 124.41 38.6674 124.221 38.4751 124.065C38.2829 123.91 38.0608 123.79 37.8089 123.707C37.5604 123.625 37.2902 123.583 36.9986 123.583C36.4716 123.583 36.0125 123.714 35.6214 123.976C35.2304 124.234 34.9271 124.612 34.7116 125.109C34.4962 125.603 34.3885 126.203 34.3885 126.909C34.3885 127.635 34.4962 128.245 34.7116 128.739C34.9304 129.232 35.2353 129.605 35.6264 129.857C36.0175 130.109 36.4699 130.235 36.9837 130.235C37.272 130.235 37.5388 130.197 37.7841 130.121C38.0327 130.045 38.2531 129.933 38.4453 129.788C38.6375 129.638 38.7966 129.458 38.9226 129.246C39.0518 129.034 39.1413 128.792 39.1911 128.52L41.3686 128.53C41.3123 128.997 41.1714 129.448 40.946 129.882C40.724 130.313 40.424 130.699 40.0462 131.04C39.6716 131.379 39.2242 131.647 38.7038 131.846C38.1868 132.041 37.6018 132.139 36.9489 132.139C36.0407 132.139 35.2287 131.934 34.5128 131.523C33.8002 131.112 33.2367 130.517 32.8224 129.738C32.4115 128.959 32.206 128.016 32.206 126.909C32.206 125.799 32.4148 124.854 32.8324 124.075C33.25 123.296 33.8168 122.703 34.5327 122.295C35.2486 121.884 36.054 121.679 36.9489 121.679C37.5388 121.679 38.0857 121.762 38.5895 121.928C39.0966 122.093 39.5457 122.335 39.9368 122.653C40.3279 122.968 40.6461 123.354 40.8913 123.812C41.1399 124.269 41.299 124.793 41.3686 125.383ZM52.2815 126.909C52.2815 128.019 52.0711 128.964 51.6502 129.743C51.2325 130.522 50.6625 131.117 49.9399 131.528C49.2207 131.935 48.412 132.139 47.5138 132.139C46.609 132.139 45.7969 131.934 45.0777 131.523C44.3585 131.112 43.7901 130.517 43.3725 129.738C42.9548 128.959 42.746 128.016 42.746 126.909C42.746 125.799 42.9548 124.854 43.3725 124.075C43.7901 123.296 44.3585 122.703 45.0777 122.295C45.7969 121.884 46.609 121.679 47.5138 121.679C48.412 121.679 49.2207 121.884 49.9399 122.295C50.6625 122.703 51.2325 123.296 51.6502 124.075C52.0711 124.854 52.2815 125.799 52.2815 126.909ZM50.099 126.909C50.099 126.19 49.9913 125.583 49.7759 125.089C49.5637 124.596 49.2638 124.221 48.876 123.966C48.4882 123.711 48.0342 123.583 47.5138 123.583C46.9934 123.583 46.5394 123.711 46.1516 123.966C45.7638 124.221 45.4622 124.596 45.2467 125.089C45.0346 125.583 44.9286 126.19 44.9286 126.909C44.9286 127.628 45.0346 128.235 45.2467 128.729C45.4622 129.223 45.7638 129.597 46.1516 129.852C46.5394 130.107 46.9934 130.235 47.5138 130.235C48.0342 130.235 48.4882 130.107 48.876 129.852C49.2638 129.597 49.5637 129.223 49.7759 128.729C49.9913 128.235 50.099 127.628 50.099 126.909ZM62.4053 121.818V132H60.5459L56.1162 125.592H56.0416V132H53.8889V121.818H55.7781L60.173 128.222H60.2625V121.818H62.4053ZM70.948 125.109C70.8784 124.867 70.7806 124.654 70.6547 124.468C70.5287 124.279 70.3746 124.12 70.1923 123.991C70.0133 123.858 69.8078 123.757 69.5758 123.688C69.3471 123.618 69.0936 123.583 68.8152 123.583C68.2948 123.583 67.8374 123.712 67.443 123.971C67.0519 124.229 66.747 124.606 66.5282 125.099C66.3095 125.59 66.2001 126.19 66.2001 126.899C66.2001 127.608 66.3078 128.212 66.5233 128.709C66.7387 129.206 67.0436 129.585 67.438 129.847C67.8325 130.106 68.2981 130.235 68.8351 130.235C69.3223 130.235 69.7382 130.149 70.0829 129.977C70.4309 129.801 70.6961 129.554 70.8784 129.236C71.064 128.918 71.1568 128.541 71.1568 128.107L71.5943 128.172H68.9693V126.551H73.2299V127.834C73.2299 128.729 73.041 129.498 72.6632 130.141C72.2853 130.78 71.765 131.274 71.1021 131.622C70.4392 131.967 69.6802 132.139 68.8251 132.139C67.8706 132.139 67.032 131.929 66.3095 131.508C65.587 131.084 65.0235 130.482 64.6191 129.703C64.2181 128.921 64.0176 127.993 64.0176 126.919C64.0176 126.094 64.1369 125.358 64.3755 124.712C64.6175 124.062 64.9556 123.512 65.3897 123.061C65.8239 122.61 66.3294 122.267 66.9061 122.032C67.4828 121.797 68.1075 121.679 68.7804 121.679C69.3571 121.679 69.894 121.763 70.3912 121.933C70.8883 122.098 71.3291 122.334 71.7136 122.638C72.1014 122.943 72.4179 123.306 72.6632 123.727C72.9084 124.145 73.0659 124.606 73.1355 125.109H70.948ZM74.8597 132V121.818H78.8767C79.6457 121.818 80.3019 121.956 80.8455 122.231C81.3924 122.503 81.8083 122.889 82.0933 123.389C82.3817 123.886 82.5259 124.471 82.5259 125.144C82.5259 125.82 82.38 126.402 82.0884 126.889C81.7967 127.373 81.3741 127.744 80.8206 128.003C80.2704 128.261 79.6042 128.391 78.822 128.391H76.1324V126.661H78.474C78.885 126.661 79.2264 126.604 79.4982 126.491C79.77 126.379 79.9721 126.21 80.1047 125.984C80.2406 125.759 80.3085 125.479 80.3085 125.144C80.3085 124.806 80.2406 124.521 80.1047 124.289C79.9721 124.057 79.7683 123.881 79.4932 123.762C79.2214 123.639 78.8784 123.578 78.4641 123.578H77.0124V132H74.8597ZM80.3583 127.366L82.8888 132H80.5124L78.0365 127.366H80.3583ZM85.8149 132H83.5081L87.023 121.818H89.7971L93.3071 132H91.0002L88.4498 124.145H88.3703L85.8149 132ZM85.6707 127.998H91.1196V129.678H85.6707V127.998ZM92.9134 123.593V121.818H101.276V123.593H98.1584V132H96.0306V123.593H92.9134ZM108.955 121.818H111.107V128.43C111.107 129.173 110.93 129.822 110.575 130.379C110.224 130.936 109.732 131.37 109.099 131.682C108.466 131.99 107.728 132.144 106.886 132.144C106.041 132.144 105.302 131.99 104.669 131.682C104.036 131.37 103.544 130.936 103.192 130.379C102.841 129.822 102.665 129.173 102.665 128.43V121.818H104.818V128.246C104.818 128.634 104.903 128.979 105.072 129.281C105.244 129.582 105.486 129.819 105.798 129.991C106.109 130.164 106.472 130.25 106.886 130.25C107.304 130.25 107.667 130.164 107.975 129.991C108.287 129.819 108.527 129.582 108.696 129.281C108.868 128.979 108.955 128.634 108.955 128.246V121.818ZM112.891 132V121.818H115.044V130.225H119.409V132H112.891ZM122.862 132H120.555L124.07 121.818H126.844L130.354 132H128.047L125.497 124.145H125.417L122.862 132ZM122.718 127.998H128.167V129.678H122.718V127.998ZM129.96 123.593V121.818H138.323V123.593H135.205V132H133.078V123.593H129.96ZM141.865 121.818V132H139.712V121.818H141.865ZM153.006 126.909C153.006 128.019 152.795 128.964 152.374 129.743C151.957 130.522 151.386 131.117 150.664 131.528C149.945 131.935 149.136 132.139 148.238 132.139C147.333 132.139 146.521 131.934 145.802 131.523C145.082 131.112 144.514 130.517 144.096 129.738C143.679 128.959 143.47 128.016 143.47 126.909C143.47 125.799 143.679 124.854 144.096 124.075C144.514 123.296 145.082 122.703 145.802 122.295C146.521 121.884 147.333 121.679 148.238 121.679C149.136 121.679 149.945 121.884 150.664 122.295C151.386 122.703 151.957 123.296 152.374 124.075C152.795 124.854 153.006 125.799 153.006 126.909ZM150.823 126.909C150.823 126.19 150.715 125.583 150.5 125.089C150.288 124.596 149.988 124.221 149.6 123.966C149.212 123.711 148.758 123.583 148.238 123.583C147.717 123.583 147.263 123.711 146.876 123.966C146.488 124.221 146.186 124.596 145.971 125.089C145.759 125.583 145.653 126.19 145.653 126.909C145.653 127.628 145.759 128.235 145.971 128.729C146.186 129.223 146.488 129.597 146.876 129.852C147.263 130.107 147.717 130.235 148.238 130.235C148.758 130.235 149.212 130.107 149.6 129.852C149.988 129.597 150.288 129.223 150.5 128.729C150.715 128.235 150.823 127.628 150.823 126.909ZM163.129 121.818V132H161.27L156.84 125.592H156.766V132H154.613V121.818H156.502L160.897 128.222H160.986V121.818H163.129ZM170.444 124.746C170.404 124.345 170.234 124.034 169.932 123.812C169.63 123.59 169.221 123.479 168.704 123.479C168.353 123.479 168.056 123.528 167.814 123.628C167.572 123.724 167.386 123.858 167.257 124.031C167.131 124.203 167.068 124.398 167.068 124.617C167.062 124.799 167.1 124.959 167.183 125.094C167.269 125.23 167.386 125.348 167.536 125.447C167.685 125.544 167.857 125.628 168.053 125.701C168.248 125.771 168.457 125.83 168.679 125.88L169.594 126.099C170.038 126.198 170.446 126.331 170.817 126.496C171.188 126.662 171.51 126.866 171.781 127.108C172.053 127.35 172.264 127.635 172.413 127.963C172.565 128.291 172.643 128.667 172.646 129.092C172.643 129.715 172.484 130.255 172.169 130.712C171.858 131.166 171.407 131.519 170.817 131.771C170.23 132.02 169.523 132.144 168.694 132.144C167.872 132.144 167.156 132.018 166.546 131.766C165.94 131.514 165.466 131.142 165.124 130.648C164.786 130.151 164.609 129.536 164.592 128.803H166.676C166.699 129.145 166.796 129.43 166.969 129.658C167.145 129.884 167.378 130.054 167.67 130.17C167.965 130.283 168.298 130.339 168.669 130.339C169.034 130.339 169.35 130.286 169.619 130.18C169.89 130.074 170.101 129.927 170.25 129.738C170.399 129.549 170.474 129.332 170.474 129.087C170.474 128.858 170.406 128.666 170.27 128.51C170.137 128.354 169.942 128.222 169.683 128.112C169.428 128.003 169.115 127.903 168.744 127.814L167.635 127.536C166.777 127.327 166.099 127 165.602 126.556C165.104 126.112 164.858 125.514 164.861 124.761C164.858 124.145 165.022 123.606 165.353 123.146C165.688 122.685 166.147 122.325 166.73 122.067C167.314 121.808 167.976 121.679 168.719 121.679C169.475 121.679 170.134 121.808 170.698 122.067C171.264 122.325 171.705 122.685 172.02 123.146C172.335 123.606 172.497 124.14 172.507 124.746H170.444ZM176.598 121.818L176.404 128.947H174.584L174.386 121.818H176.598ZM175.494 132.129C175.166 132.129 174.884 132.013 174.649 131.781C174.414 131.546 174.298 131.264 174.301 130.936C174.298 130.611 174.414 130.333 174.649 130.101C174.884 129.869 175.166 129.753 175.494 129.753C175.809 129.753 176.086 129.869 176.324 130.101C176.563 130.333 176.684 130.611 176.687 130.936C176.684 131.155 176.626 131.355 176.513 131.538C176.404 131.717 176.26 131.861 176.081 131.97C175.902 132.076 175.706 132.129 175.494 132.129ZM181.15 121.818L180.956 128.947H179.136L178.937 121.818H181.15ZM180.046 132.129C179.718 132.129 179.436 132.013 179.201 131.781C178.965 131.546 178.849 131.264 178.853 130.936C178.849 130.611 178.965 130.333 179.201 130.101C179.436 129.869 179.718 129.753 180.046 129.753C180.361 129.753 180.638 129.869 180.876 130.101C181.115 130.333 181.236 130.611 181.239 130.936C181.236 131.155 181.178 131.355 181.065 131.538C180.956 131.717 180.812 131.861 180.633 131.97C180.454 132.076 180.258 132.129 180.046 132.129ZM185.701 121.818L185.508 128.947H183.688L183.489 121.818H185.701ZM184.598 132.129C184.27 132.129 183.988 132.013 183.753 131.781C183.517 131.546 183.401 131.264 183.405 130.936C183.401 130.611 183.517 130.333 183.753 130.101C183.988 129.869 184.27 129.753 184.598 129.753C184.913 129.753 185.189 129.869 185.428 130.101C185.667 130.333 185.788 130.611 185.791 130.936C185.788 131.155 185.73 131.355 185.617 131.538C185.508 131.717 185.363 131.861 185.184 131.97C185.005 132.076 184.81 132.129 184.598 132.129Z" fill="white"/>
</svg>
