<svg width="122" height="122" viewBox="0 0 122 122" fill="none" xmlns="http://www.w3.org/2000/svg">
<circle cx="61" cy="61" r="61" fill="#BA393E"/>
<g clip-path="url(#clip0_0_1)">
<path d="M104 61.5C104 65.3 103.5 69 102.6 72.5C100.5 80.5 96.1 87.5 90.1 92.9C82.6 99.8 72.5 103.9 61.5 103.9C59.8 103.9 58.1 103.8 56.5 103.6C47.9 102.6 40.2 99 34 93.7C28.2 89 23.9 82.7 21.4 75.5C19.8 71.1 19 66.4 19 61.5C19 59.5 19.1 57.6 19.4 55.7C19.7 53.3 20.3 50.9 21 48.6C23.9 39.6 29.7 31.9 37.3 26.6C43.6 22.2 51.2 19.5 59.3 19.1C60 19 60.6 19 61.2 19C61.3 19 61.4 19 61.5 19C69.6 19 77.2 21.3 83.6 25.2C90.6 29.5 96.3 35.8 99.9 43.3C102.5 48.8 104 55 104 61.5Z" fill="#FEDB6B"/>
<path d="M89.5999 53.5C89.5999 72.9 73.8999 88.6 54.4999 88.6C35.7999 88.6 20.5999 74 19.3999 55.6C19.6999 53.2 20.2999 50.8 20.9999 48.5C23.8999 39.5 29.6999 31.8 37.2999 26.5C43.5999 22.1 51.1999 19.4 59.2999 19C59.9999 19 60.5999 19 61.1999 19C77.3999 22.1 89.5999 36.4 89.5999 53.5Z" fill="#FEE38C"/>
<path d="M35.2 67.7001C41 72.7001 49 73.4001 54.6 67.7001L54.7 67.8001C54.3 68.7001 53.7 69.5001 53.1 70.2001C50.4 73.3001 45.8 74.4001 41.9 73.1001C39.1 72.2001 36.5 70.3001 35.1 67.7001C35 67.9001 35.2 67.7001 35.2 67.7001Z" fill="#73421A"/>
<path d="M68.4999 67.7001C74.2999 72.7001 82.2999 73.4001 87.8999 67.7001L87.9999 67.8001C87.5999 68.7001 86.9999 69.5001 86.3999 70.2001C83.6999 73.3001 79.0999 74.4001 75.1999 73.1001C72.3999 72.2001 69.7999 70.3001 68.3999 67.7001C68.3999 67.9001 68.4999 67.7001 68.4999 67.7001Z" fill="#73421A"/>
<path d="M30.3999 59.6C38.0999 60.9 48.0999 58.6 50.1999 49.9L50.3999 50C50.8999 57.2 43.1999 62 36.5999 61.4C34.3999 61.3 32.2999 60.8 30.3999 59.8V59.6Z" fill="#73421A"/>
<path d="M72.9 49.9C76.8 56.7 84.6999 61.9 92.6999 59.6L92.8 59.8C87 63.6 79.1 61 75.4 55.7C74.1 54 73.1 52.1 72.7 50L72.9 49.9Z" fill="#73421A"/>
<path d="M52.5 90.1001C52.6 89.8001 52.8 89.7001 53 89.5001C55.6 88.1001 58.6 87.8001 61.5 87.7001C64.5 87.8001 67.7 88.1001 70.3 89.7001C70.4 89.8001 70.5 89.8001 70.6 90.1001H70.4C67.6 89.6001 64.5 89.8001 61.6 89.7001C58.5 89.7001 55.4 89.6001 52.5 90.1001Z" fill="#73421A"/>
</g>
<defs>
<clipPath id="clip0_0_1">
<rect width="85" height="85" fill="white" transform="translate(19 19)"/>
</clipPath>
</defs>
</svg>
