<svg width="86" height="45" viewBox="0 0 86 45" fill="none" xmlns="http://www.w3.org/2000/svg">
<g clip-path="url(#clip0_134_14485)">
<path d="M55.6045 13.1624C55.6045 14.28 55.4575 15.3682 55.1928 16.3976C54.5751 18.7506 53.281 20.8094 51.5163 22.3976C49.3104 24.4271 46.3398 25.6329 43.1045 25.6329C42.6045 25.6329 42.1045 25.6035 41.6339 25.5447C39.1045 25.2506 36.8398 24.1918 35.0163 22.6329C33.3104 21.2506 32.0457 19.3976 31.3104 17.28C30.8398 15.9859 30.6045 14.6035 30.6045 13.1624C30.6045 12.5741 30.6339 12.0153 30.7222 11.4565C30.8104 10.7506 30.9869 10.0447 31.1928 9.36824C32.0457 6.72118 33.7516 4.45647 35.9869 2.89765C37.8398 1.60353 40.0751 0.809412 42.4575 0.691765C42.6633 0.662354 42.8398 0.662354 43.0163 0.662354C43.0457 0.662354 43.0751 0.662354 43.1045 0.662354C45.4869 0.662354 47.7222 1.33882 49.6045 2.48588C51.6633 3.75059 53.3398 5.60353 54.3986 7.80941C55.1633 9.42706 55.6045 11.2506 55.6045 13.1624Z" fill="#FEDB6B"/>
<path d="M51.3692 10.8094C51.3692 16.5153 46.7516 21.1329 41.0457 21.1329C35.5457 21.1329 31.0751 16.8388 30.7222 11.4271C30.8104 10.7212 30.9869 10.0153 31.1928 9.33882C32.0457 6.69176 33.7516 4.42706 35.9869 2.86824C37.8398 1.57412 40.0751 0.780001 42.4575 0.662354C42.6633 0.662354 42.8398 0.662354 43.0163 0.662354C47.781 1.57412 51.3692 5.78 51.3692 10.8094Z" fill="#FEE38C"/>
<path d="M35.3692 14.9858C37.0751 16.4564 39.428 16.6623 41.0751 14.9858L41.1045 15.0153C40.9869 15.28 40.8104 15.5153 40.6339 15.7211C39.8398 16.6329 38.4869 16.9564 37.3398 16.5741C36.5163 16.3094 35.7516 15.7505 35.3398 14.9858C35.3104 15.0447 35.3692 14.9858 35.3692 14.9858Z" fill="#73421A"/>
<path d="M45.1634 14.9858C46.8692 16.4564 49.2222 16.6623 50.8692 14.9858L50.8986 15.0153C50.781 15.28 50.6045 15.5153 50.4281 15.7211C49.6339 16.6329 48.281 16.9564 47.1339 16.5741C46.3104 16.3094 45.5457 15.7505 45.1339 14.9858C45.1339 15.0447 45.1634 14.9858 45.1634 14.9858Z" fill="#73421A"/>
<path d="M33.9575 12.6034C36.2222 12.9858 39.1633 12.3093 39.781 9.75049L39.8398 9.7799C39.9869 11.8975 37.7222 13.3093 35.781 13.1328C35.1339 13.1034 34.5163 12.9564 33.9575 12.6623V12.6034Z" fill="#73421A"/>
<path d="M46.4574 9.75049C47.6045 11.7505 49.928 13.2799 52.281 12.6034L52.3104 12.6623C50.6045 13.7799 48.281 13.0152 47.1927 11.4564C46.8104 10.9564 46.5163 10.3975 46.3986 9.7799L46.4574 9.75049Z" fill="#73421A"/>
<path d="M40.4575 21.574C40.4869 21.4858 40.5457 21.4564 40.6045 21.3976C41.3692 20.9858 42.2516 20.8976 43.1045 20.8682C43.9869 20.8976 44.928 20.9858 45.6928 21.4564C45.7222 21.4858 45.7516 21.4858 45.781 21.574H45.7222C44.8986 21.427 43.9869 21.4858 43.1339 21.4564C42.2222 21.4564 41.3104 21.427 40.4575 21.574Z" fill="#73421A"/>
</g>
<path d="M15.0307 33.4564V31.9351H22.1983V33.4564H19.5264V40.6624H17.7025V33.4564H15.0307ZM22.6649 40.6624V34.1169H24.4248V35.2589H24.493C24.6123 34.8527 24.8126 34.5459 25.0939 34.3385C25.3751 34.1283 25.699 34.0231 26.0655 34.0231C26.1564 34.0231 26.2544 34.0288 26.3595 34.0402C26.4646 34.0516 26.5569 34.0672 26.6365 34.0871V35.6979C26.5513 35.6723 26.4334 35.6496 26.2828 35.6297C26.1322 35.6098 25.9944 35.5999 25.8694 35.5999C25.6024 35.5999 25.3638 35.6581 25.1535 35.7746C24.9461 35.8882 24.7814 36.0473 24.6592 36.2518C24.5399 36.4564 24.4802 36.6922 24.4802 36.9592V40.6624H22.6649ZM28.895 43.1169C28.6649 43.1169 28.449 43.0984 28.2473 43.0615C28.0484 43.0274 27.8836 42.9834 27.753 42.9294L28.1621 41.5743C28.3751 41.6396 28.5669 41.6751 28.7373 41.6808C28.9106 41.6865 29.0598 41.6467 29.1848 41.5615C29.3126 41.4763 29.4163 41.3314 29.4959 41.1268L29.6024 40.8499L27.2544 34.1169H29.1635L30.5186 38.9237H30.5868L31.9547 34.1169H33.8765L31.3325 41.3697C31.2103 41.722 31.0442 42.0288 30.8339 42.2902C30.6265 42.5544 30.3638 42.7575 30.0456 42.8996C29.7274 43.0445 29.3439 43.1169 28.895 43.1169ZM39.1212 40.6624H37.1439L40.1567 31.9351H42.5346L45.5431 40.6624H43.5658L41.3797 33.9294H41.3116L39.1212 40.6624ZM38.9976 37.232H43.6681V38.6723H38.9976V37.232ZM49.2036 43.2533C48.6155 43.2533 48.1113 43.1723 47.6908 43.0104C47.2732 42.8513 46.9408 42.6339 46.6937 42.3584C46.4465 42.0828 46.286 41.7731 46.2121 41.4294L47.8911 41.2035C47.9422 41.3342 48.0232 41.4564 48.134 41.57C48.2448 41.6837 48.3911 41.7746 48.5729 41.8428C48.7576 41.9138 48.982 41.9493 49.2462 41.9493C49.6411 41.9493 49.9664 41.8527 50.2221 41.6595C50.4806 41.4692 50.6098 41.1496 50.6098 40.7007V39.5033H50.5331C50.4536 39.6851 50.3343 39.857 50.1752 40.0189C50.0161 40.1808 49.8116 40.3129 49.5616 40.4152C49.3116 40.5175 49.0133 40.5686 48.6667 40.5686C48.1752 40.5686 47.7277 40.455 47.3243 40.2277C46.9238 39.9976 46.6042 39.6467 46.3655 39.1751C46.1297 38.7007 46.0118 38.1013 46.0118 37.3768C46.0118 36.6354 46.1326 36.016 46.3741 35.5189C46.6155 35.0217 46.9366 34.6496 47.3371 34.4024C47.7405 34.1553 48.1823 34.0317 48.6624 34.0317C49.0289 34.0317 49.3357 34.0942 49.5829 34.2192C49.83 34.3413 50.0289 34.4947 50.1795 34.6794C50.3329 34.8612 50.4508 35.0402 50.5331 35.2163H50.6013V34.1169H52.4039V40.7263C52.4039 41.2831 52.2675 41.749 51.9948 42.124C51.7221 42.499 51.3442 42.7803 50.8613 42.9678C50.3812 43.1581 49.8286 43.2533 49.2036 43.2533ZM49.242 39.205C49.5346 39.205 49.7817 39.1325 49.9834 38.9876C50.188 38.8399 50.3442 38.6297 50.4522 38.357C50.563 38.0814 50.6184 37.7518 50.6184 37.3683C50.6184 36.9848 50.5644 36.6524 50.4564 36.3712C50.3485 36.0871 50.1922 35.8669 49.9877 35.7106C49.7831 35.5544 49.5346 35.4763 49.242 35.4763C48.9437 35.4763 48.6922 35.5572 48.4877 35.7192C48.2831 35.8783 48.1283 36.0999 48.0232 36.3839C47.9181 36.668 47.8655 36.9962 47.8655 37.3683C47.8655 37.7462 47.9181 38.0729 48.0232 38.3484C48.1312 38.6212 48.286 38.8328 48.4877 38.9834C48.6922 39.1311 48.9437 39.205 49.242 39.205ZM55.715 40.7859C55.2973 40.7859 54.9252 40.7135 54.5985 40.5686C54.2718 40.4209 54.0133 40.2035 53.8229 39.9166C53.6354 39.6268 53.5417 39.266 53.5417 38.8342C53.5417 38.4706 53.6084 38.1652 53.742 37.918C53.8755 37.6709 54.0573 37.472 54.2874 37.3214C54.5175 37.1709 54.7789 37.0572 55.0715 36.9805C55.367 36.9038 55.6766 36.8499 56.0005 36.8186C56.3812 36.7788 56.688 36.7419 56.9209 36.7078C57.1539 36.6709 57.3229 36.6169 57.428 36.5459C57.5331 36.4749 57.5857 36.3697 57.5857 36.2305V36.205C57.5857 35.9351 57.5005 35.7263 57.33 35.5785C57.1624 35.4308 56.9238 35.357 56.6141 35.357C56.2874 35.357 56.0275 35.4294 55.8343 35.5743C55.6411 35.7163 55.5133 35.8953 55.4508 36.1112L53.7718 35.9749C53.857 35.5771 54.0246 35.2334 54.2746 34.9436C54.5246 34.651 54.8471 34.4266 55.242 34.2703C55.6397 34.1112 56.0999 34.0317 56.6226 34.0317C56.9863 34.0317 57.3343 34.0743 57.6667 34.1595C58.0019 34.2447 58.2988 34.3768 58.5573 34.5558C58.8187 34.7348 59.0246 34.9649 59.1752 35.2462C59.3258 35.5246 59.401 35.8584 59.401 36.2476V40.6624H57.6795V39.7547H57.6283C57.5232 39.9592 57.3826 40.1396 57.2064 40.2959C57.0303 40.4493 56.8187 40.57 56.5715 40.6581C56.3243 40.7433 56.0388 40.7859 55.715 40.7859ZM56.2348 39.5331C56.5019 39.5331 56.7377 39.4805 56.9422 39.3754C57.1468 39.2675 57.3073 39.1226 57.4238 38.9408C57.5402 38.7589 57.5985 38.553 57.5985 38.3229V37.6283C57.5417 37.6652 57.4635 37.6993 57.3641 37.7305C57.2675 37.7589 57.1581 37.7859 57.036 37.8115C56.9138 37.8342 56.7917 37.8555 56.6695 37.8754C56.5473 37.8925 56.4366 37.9081 56.3371 37.9223C56.1241 37.9535 55.938 38.0033 55.7789 38.0714C55.6198 38.1396 55.4962 38.232 55.4081 38.3484C55.3201 38.4621 55.276 38.6041 55.276 38.7746C55.276 39.0217 55.3655 39.2106 55.5445 39.3413C55.7263 39.4692 55.9564 39.5331 56.2348 39.5331ZM60.8094 40.6624V34.1169H62.6248V40.6624H60.8094ZM61.7214 33.2731C61.4515 33.2731 61.2199 33.1837 61.0268 33.0047C60.8364 32.8229 60.7412 32.6055 60.7412 32.3527C60.7412 32.1027 60.8364 31.8882 61.0268 31.7092C61.2199 31.5274 61.4515 31.4365 61.7214 31.4365C61.9912 31.4365 62.2214 31.5274 62.4117 31.7092C62.6049 31.8882 62.7015 32.1027 62.7015 32.3527C62.7015 32.6055 62.6049 32.8229 62.4117 33.0047C62.2214 33.1837 61.9912 33.2731 61.7214 33.2731ZM65.8943 36.8783V40.6624H64.079V34.1169H65.8091V35.2717H65.8858C66.0307 34.891 66.2736 34.5899 66.6145 34.3683C66.9554 34.1439 67.3687 34.0317 67.8545 34.0317C68.3091 34.0317 68.7054 34.1311 69.0434 34.33C69.3815 34.5288 69.6443 34.8129 69.8318 35.1822C70.0193 35.5487 70.113 35.9862 70.113 36.4947V40.6624H68.2977V36.8186C68.3005 36.418 68.1983 36.1055 67.9909 35.8811C67.7835 35.6538 67.498 35.5402 67.1344 35.5402C66.89 35.5402 66.6741 35.5928 66.4866 35.6979C66.302 35.803 66.1571 35.9564 66.052 36.1581C65.9497 36.357 65.8971 36.597 65.8943 36.8783Z" fill="white"/>
<defs>
<clipPath id="clip0_134_14485">
<rect width="25" height="25" fill="white" transform="translate(30.6045 0.662354)"/>
</clipPath>
</defs>
</svg>
