<svg width="24" height="24" viewBox="0 0 24 24" fill="none" xmlns="http://www.w3.org/2000/svg">
<path d="M5.50689 15.001C6.38159 14.9984 7.2232 14.6663 7.864 14.071L14.1243 17.648C13.6907 19.3422 14.5668 21.0979 16.1814 21.7702C17.7959 22.4425 19.6592 21.8275 20.5563 20.3262C21.4535 18.825 21.1123 16.8928 19.7553 15.7895C18.3983 14.6862 16.437 14.7465 15.1503 15.931L8.89005 12.354C8.95568 12.103 8.99193 11.8453 8.99806 11.586L15.1493 8.07098C16.3703 9.18091 18.2019 9.28383 19.5395 8.31765C20.8771 7.35148 21.355 5.58042 20.685 4.07256C20.0149 2.56471 18.3801 1.73238 16.7665 2.07754C15.153 2.4227 14.0018 3.85097 14.0073 5.50098C14.0109 5.78906 14.0502 6.07558 14.1243 6.35398L8.44003 9.60098C7.52949 8.19239 5.74763 7.62774 4.19194 8.25479C2.63626 8.88184 1.74411 10.5243 2.065 12.1706C2.38588 13.8168 3.82958 15.004 5.50689 15.001Z" fill="#FED75B"/>
</svg>
